<?xml version="1.0"?>
<svg xmlns="http://www.w3.org/2000/svg" viewBox="0 0 1582.26 619.15">
  <defs>
    
  </defs>
  <g id="Bild">
    <g fill="#0f172a">
      <path class="cls-1" d="m62.07,510.13V86.68c131.41,0,262.83,0,394.24,0v423.45H62.07Zm197.06-84.28c-.16,3.01.2,5.76,1.86,8.24,3.62-2.31,3.64-2.31,4.84-1.95.05,2.9.64,4.69,1.96,5.93,2.47-1.89,4.12-1.68,6.01.81,1.43,1.88,2.85,3.77,4.18,5.71,1.74,2.52,4.16,3.83,7.17,4.19,1.05.13,2.11.21,3.17.21,3.9-.02,7.8-.15,11.7-.11,3,.02,6.1-.25,8.67,1.86,2.05-2.13,2.88-4.71,3.65-7.41.75.27,1.41.51,2.13.77,1.26-2.42,1.7-5.04,1.89-7.8.63.12,1.18.22,2.06.38.15-1.92.41-3.75.4-5.58-.04-4.69-3.25-8.9-7.76-10.39-3.32-1.1-6.56-.71-9.78.46-2.13.78-4.26,1.54-6.4,2.29-2.69.96-4.93.27-6.9-1.72-3.29-3.32-5.42-7.3-7.09-11.58-.3-.77-.13-1.18.56-1.64,3.74-2.53,7.52-5.02,11.14-7.71,3.59-2.66,7.24-5.3,10.48-8.36,5.95-5.62,7.3-13.14,4.1-20.62-2.43-5.67-6.37-10.27-10.87-14.43-6.48-5.99-13.92-10.63-21.72-14.75-1.04-.55-2.09-1.09-3.04-1.58,3-2.6,5.94-5.14,8.92-7.72,1.53,1.51,1.72,3.56,1.61,5.78,3.99-.05,6.85-1.79,8.96-4.94,2.3,2.82,5.4,3.8,8.89,4.17.17-2.04-.19-4.23,1.7-5.84,1.45,3.35,4.17,4.76,7.55,5.36.06-.21.11-.35.13-.49.38-2.57,1.4-3.09,3.96-2.55,2.73.58,5.42,1.35,8.16,1.88,4.01.78,8.09,1.23,11.94-.49,2.6-1.16,5.06-2.67,7.46-4.2,3.43-2.2,6.95-3.65,11.11-2.09.97-1.89,1.46-3.8,1.45-5.77,0-1.28.53-1.55,1.63-1.37.1.02.22-.03.61-.1-.11-1.96-.22-3.93-.33-5.98.44-.03.91-.07,1.42-.11.04-.24.11-.46.11-.67.03-5.17-1.77-9.49-6.25-12.43-4.68-3.07-11.07-2.82-16.13.66-2.26,1.56-4.37,3.32-6.51,5.05-2.77,2.25-5.83,2.87-9.24,1.73-1.22-.41-2.43-.85-3.6-1.36-5.18-2.25-10.56-3.87-16.11-4.96-.24-.05-.47-.15-.69-.23.64-2.31.94-2.57,3.25-2.71,1.36-.08,2.72-.09,4.08-.18,3.44-.24,5.86-1.94,7.38-5.05-1.61-.64-3.16-1.3-3.81-3.18,3.76.17,7.05-.5,9.35-3.16-.66-1.04-1.43-1.85-1.74-2.81-.57-1.75-.12-3.45,1.21-4.74,1.42-1.38,2.92-2.72,4.56-3.83,3.21-2.18,6.55-4.15,9.8-6.27,3.56-2.33,5.86-5.59,6.86-9.66.61-2.48,1.01-5.02,1.38-7.56.47-3.17,1.14-6.22,3.34-8.74,1.07-1.22,1.16-1.39.02-2.6-1.17-1.24-2.58-2.26-3.89-3.37-.22-.18-.49-.3-.8-.48.4-.67.76-1.27,1.16-1.94-1.96-1.88-4.3-3.11-6.99-3.99,1.01-1.8-.41-2.2-1.53-2.75-2.66-1.3-5.44-1.52-8.28-.66-5.94,1.8-9.65,8.05-8.81,14.49.34,2.65.29,5.34.37,8.02.03,1.14-.48,2.12-1.39,2.81-.74.57-1.55,1.06-2.38,1.51-3.12,1.69-6.28,3.29-9.37,5.03-1.73.97-3.34,2.15-4.88,3.15-1.71-1.7-3.27-3.49-5.07-5-3.47-2.92-7.61-4.71-11.8-6.36-3.9-1.54-7.87-2.89-11.73-4.53-1.85-.78-3.59-1.9-5.22-3.09-1.26-.93-1.94-2.32-1.8-3.77,2.3-.14,4.47-.27,6.65-.41,1.73-.11,3.47-.35,5.2-.29,2.13.07,3.27,1.35,3.39,3.45.03.47.05.93.08,1.74,1.07-.63,2.1-.97,2.73-1.67,1.16-1.3,2.39-2.68,3.02-4.25.99-2.46,1.62-5.09,2.21-7.69.74-3.26.56-3.43-2.71-4.52-.29-.1-.68-.27-.77-.51-.33-.84-.56-1.72-.86-2.71,2.2.52,4.28,1.04,6.38,1.49,2.42.52,4.87.8,7.3.09,2.61-.76,4.17-2.55,4.59-5.16.38-2.36-.48-4.34-2.53-5.7-.33-.22-.82-.22-1.23-.32.04.37,0,.78.14,1.11,1.18,2.82-.11,5.67-3.11,6.42-3.34.83-6.62-.02-9.8-.58.97-1.38,1.88-2.7,2.82-3.98.17-.24.5-.42.79-.51,1.47-.42,2.55-1.32,2.78-2.8.27-1.75.5-3.56.34-5.3-.24-2.64-.48-5.23.04-7.88.48-2.45-.12-3.26-2.5-4.15-.49-.18-.99-.39-1.51-.48-3.46-.6-6.92-1.18-10.38-1.76-1.63-.27-3.43-.19-4.87-.86-3.23-1.51-6.61-2.38-10.09-2.92-2.84-.44-5.68-.74-7.79-2.99-.17-.18-.44-.28-.67-.41-3.9-2.15-8.17-2.86-12.55-3.08-6.38-.32-12.69.55-19.01,1.23-2.82.3-5.65.58-8.46-.17-2.24-.59-2.45-.46-3.15,1.75-.1.32-.28.66-.25.97.27,2.62-1.23,4.36-2.91,6.12-.93.98-1.91,1.54-3.22,1.58-.75.02-1.52.01-2.26-.08-.6-.08-.86.09-1.07.66-1.06,2.99-.65,5.77,1.07,8.42.26.4.36,1.01.3,1.5-.22,1.84-.69,3.67-.76,5.51-.08,1.97-1.07,3.12-2.74,3.85-.78.34-1.65.53-2.5.69-.59.11-.84.33-.81.95.21,3.78,1.6,6.95,4.93,9.06.61.39.74.79.77,1.44.09,1.86.18,3.72.44,5.56.7,4.99,2.62,9.59,4.67,14.16,1.06,2.38,2.18,4.75,3,7.21.99,2.99-.34,5.18-3.38,6.1-.21.06-.4.17-.57.25.34,3.97,4.31,6.95,10.48,7.9-.5,1.45-1.01,2.87-1.49,4.31-1.29,3.86-2.06,7.78-1.26,11.85.56,2.79,1.86,5.2,3.99,7.24,1.32-1.75,2.79-3.14,5.02-3.52.15,1.57.35,3.04.41,4.53.22,4.95-.83,8.97-5.84,10.98-.06.02-.1.1-.14.16.91,3.29,5.02,5.11,11.15,4.88-.09,3-.96,5.77-2.33,8.41-2.14,4.12-5.38,7.35-8.76,10.47-3.7,3.41-7.65,6.59-10.46,10.82-1.45,2.18-3.39,3.74-5.8,4.65-2.28.86-4.64,1.66-7.03,2.09-6.55,1.18-12.89-1.77-15.94-7.23-2.25-4.02-2.6-8.32-1.91-12.78.73-4.65,2.12-9.13,3.91-13.47,3.79-9.16,7.77-18.24,11.52-27.41,3.87-9.49,7.47-19.09,8.2-29.44.39-5.54-.26-10.92-2.59-16.03-5.41-11.84-18.13-13.24-25.82-9.53-7.56,3.65-10.81,10.22-11.63,18.1-.39,3.7-.31,7.44-.52,11.15-.09,1.7-.22,3.43-.57,5.09-.85,4.14-3.22,7.5-5.92,10.66-.5.59-1,1.18-1.66,1.95,6.83,3.3,12.66.93,18.45-2.48.2.76.37,1.45.58,2.24,2.01-1.09,3.6-2.49,4.85-4.25,2.77-3.91,3.49-8.29,2.98-12.91,3.69-1.54,5.67-4.71,4.81-7.67-.29,0-.59,0-.89,0-4.73-.05-7.72-3.09-7.62-7.72.06-2.85,1.94-5.49,4.47-6.28,2.85-.89,5.93.02,7.7,2.38.69.92,1.27,1.95,1.71,3,1.83,4.42,2.07,9.04,1.52,13.71-.65,5.51-2.24,10.8-4.56,15.81-3.8,8.22-7.82,16.35-11.82,24.48-3.08,6.26-6.42,12.4-8.67,19.02-2.73,8.05-4.09,16.25-2.12,24.69,1.93,8.29,6.45,14.79,14.19,18.84,6.59,3.45,13.72,4.18,21.05,3.74.63-.04,1.26-.07,1.95-.11.03.31.06.53.06.74.06,5.09.93,10.05,2.42,14.92.9,2.95,1.75,5.93,2.43,8.93.83,3.66-.64,6.01-4.23,7.12-.68.21-1.39.4-2.1.47-3.2.32-6.4.63-9.6.89-3.93.32-6.72,2.08-7.98,5.88-.16.49-.4.96-.6,1.45-.98,2.4-2.74,3.89-5.34,4.35-1.14.2-2.28.35-3.52.54.92,3.95,3.12,6.7,7.15,8.01-1.91,1.57-3.99,2.33-6.45,2.48,1.02,4.4,3.78,6.95,8.08,7.94-1.35,3.03-1.46,5.91-.07,8.86,1.9-.69,3.68-1.44,5.73-.93-.9,2.77-.68,5.35.99,7.8.27-.22.45-.36.62-.5,2.36-1.97,4.04-1.76,5.65.86.88,1.42,1.48,3.01,2.29,4.48,1.08,1.96,2.03,4.03,3.39,5.78,2.75,3.52,6.72,4.66,11.05,4.72,4.28.06,8.56.03,12.83.01,3.01-.01,6.03-.12,8.24,2.45,2.3-1.64,3.51-3.85,4.51-6.28.72.33,1.39.63,2.26,1.02.77-2.01,1.52-3.93,2.28-5.91.4.15.85.31,1.37.51,1.02-2.01,1.61-4.07,1.77-6.3.62-8.46-6.86-15.27-15.34-13.75-3.23.58-6.37,1.62-9.56,2.4-2.59.63-3.8.16-4.84-2.22-1.34-3.06-2.62-6.18-3.59-9.36-.73-2.4-.99-4.95-1.37-7.44-.24-1.54-.05-1.71,1.55-2.07,1.29-.29,2.58-.58,3.86-.89,6.21-1.48,12.4-2.98,18.36-5.32,5.98-2.35,10.04-6.45,12.31-12.36,1.56-4.07,2.38-8.28,2.89-12.57.26-2.17.45-4.35.67-6.54.22-.03.36-.07.51-.07,5.01.09,9.98.48,14.82,1.83,3.75,1.05,7.28,2.53,9.98,5.46,4.43,4.8,3.42,10.53-2.37,13.5-.2.1-.4.21-.61.3-2.31.94-4.59,1.96-6.93,2.8-3.43,1.24-6.06,3.12-7.25,6.77-.93,2.87-3,4.96-5.85,6.22-.19.08-.35.25-.79.58.97,1.19,1.76,2.5,2.87,3.43,1.14.95,2.61,1.53,3.93,2.27-1.38,3.19-1.16,6.35.66,9.52,1.62-1.45,3.21-2.75,5.64-2.36Zm176.18-74.78v-54.07h-54.87v54.07h54.87Z"></path>
      <path d="m259.13,425.85c-2.43-.4-4.02.91-5.64,2.36-1.82-3.17-2.04-6.32-.66-9.52-1.33-.74-2.79-1.32-3.93-2.27-1.11-.93-1.9-2.24-2.87-3.43.44-.33.6-.5.79-.58,2.85-1.26,4.92-3.35,5.85-6.22,1.19-3.66,3.81-5.54,7.25-6.77,2.34-.84,4.62-1.86,6.93-2.8.21-.09.41-.2.61-.3,5.79-2.97,6.79-8.71,2.37-13.5-2.7-2.93-6.24-4.4-9.98-5.46-4.84-1.36-9.81-1.75-14.82-1.83-.15,0-.29.04-.51.07-.22,2.19-.41,4.37-.67,6.54-.51,4.29-1.33,8.51-2.89,12.57-2.27,5.91-6.33,10.01-12.31,12.36-5.96,2.34-12.15,3.84-18.36,5.32-1.28.31-2.57.6-3.86.89-1.59.36-1.78.52-1.55,2.07.38,2.49.64,5.04,1.37,7.44.97,3.19,2.25,6.3,3.59,9.36,1.04,2.39,2.26,2.86,4.84,2.22,3.19-.78,6.33-1.82,9.56-2.4,8.48-1.53,15.96,5.28,15.34,13.75-.16,2.22-.75,4.29-1.77,6.3-.52-.19-.97-.36-1.37-.51-.76,1.98-1.51,3.9-2.28,5.91-.87-.39-1.53-.69-2.26-1.02-1.01,2.43-2.21,4.64-4.51,6.28-2.21-2.56-5.23-2.46-8.24-2.45-4.28.02-8.56.05-12.83-.01-4.33-.06-8.3-1.2-11.05-4.72-1.36-1.75-2.32-3.82-3.39-5.78-.81-1.47-1.41-3.05-2.29-4.48-1.61-2.62-3.29-2.82-5.65-.86-.17.14-.35.28-.62.5-1.67-2.46-1.89-5.03-.99-7.8-2.05-.51-3.83.24-5.73.93-1.39-2.95-1.28-5.84.07-8.86-4.3-.99-7.06-3.54-8.08-7.94,2.45-.15,4.53-.91,6.45-2.48-4.03-1.31-6.23-4.05-7.15-8.01,1.24-.19,2.38-.34,3.52-.54,2.6-.46,4.36-1.95,5.34-4.35.2-.48.43-.95.6-1.45,1.26-3.8,4.05-5.56,7.98-5.88,3.2-.26,6.4-.57,9.6-.89.71-.07,1.41-.26,2.1-.47,3.59-1.11,5.06-3.46,4.23-7.12-.68-3-1.53-5.98-2.43-8.93-1.49-4.87-2.36-9.83-2.42-14.92,0-.22-.03-.43-.06-.74-.69.04-1.32.07-1.95.11-7.33.44-14.46-.29-21.05-3.74-7.75-4.05-12.26-10.55-14.19-18.84-1.97-8.43-.61-16.64,2.12-24.69,2.25-6.62,5.58-12.76,8.67-19.02,4.01-8.13,8.02-16.25,11.82-24.48,2.32-5.02,3.9-10.31,4.56-15.81.55-4.67.31-9.29-1.52-13.71-.44-1.06-1.02-2.08-1.71-3-1.76-2.37-4.84-3.27-7.7-2.38-2.52.79-4.4,3.43-4.47,6.28-.1,4.63,2.89,7.66,7.62,7.72.3,0,.6,0,.89,0,.86,2.97-1.12,6.13-4.81,7.67.51,4.61-.21,9-2.98,12.91-1.25,1.76-2.84,3.16-4.85,4.25-.2-.79-.38-1.48-.58-2.24-5.78,3.41-11.62,5.78-18.45,2.48.66-.77,1.16-1.36,1.66-1.95,2.7-3.16,5.08-6.52,5.92-10.66.34-1.67.47-3.39.57-5.09.2-3.72.13-7.46.52-11.15.82-7.88,4.07-14.45,11.63-18.1,7.7-3.71,20.41-2.31,25.82,9.53,2.33,5.11,2.98,10.49,2.59,16.03-.73,10.35-4.32,19.94-8.2,29.44-3.74,9.17-7.73,18.25-11.52,27.41-1.79,4.34-3.19,8.81-3.91,13.47-.7,4.46-.34,8.76,1.91,12.78,3.05,5.46,9.39,8.41,15.94,7.23,2.4-.43,4.75-1.23,7.03-2.09,2.41-.91,4.35-2.47,5.8-4.65,2.81-4.23,6.76-7.41,10.46-10.82,3.38-3.11,6.62-6.35,8.76-10.47,1.37-2.64,2.24-5.41,2.33-8.41-6.13.22-10.24-1.59-11.15-4.89.05-.06.08-.14.14-.16,5.01-2.02,6.06-6.04,5.84-10.98-.07-1.48-.27-2.96-.41-4.53-2.23.38-3.7,1.76-5.02,3.52-2.13-2.04-3.44-4.45-3.99-7.24-.81-4.07-.03-7.99,1.26-11.85.48-1.44.99-2.87,1.49-4.31-6.17-.95-10.14-3.93-10.48-7.9.17-.08.36-.18.57-.25,3.05-.92,4.38-3.11,3.38-6.1-.82-2.46-1.93-4.84-3-7.21-2.05-4.57-3.97-9.17-4.67-14.16-.26-1.84-.34-3.7-.44-5.56-.03-.64-.16-1.05-.77-1.44-3.33-2.11-4.73-5.27-4.93-9.06-.03-.62.22-.83.81-.95.85-.17,1.71-.35,2.5-.69,1.67-.73,2.67-1.88,2.74-3.85.07-1.84.55-3.67.76-5.51.06-.49-.04-1.09-.3-1.5-1.72-2.65-2.13-5.43-1.07-8.42.2-.57.46-.74,1.07-.66.75.1,1.51.1,2.26.08,1.31-.04,2.29-.6,3.22-1.58,1.67-1.76,3.17-3.49,2.91-6.12-.03-.31.14-.65.25-.97.7-2.21.9-2.34,3.15-1.75,2.81.74,5.64.47,8.46.17,6.32-.68,12.63-1.55,19.01-1.23,4.38.22,8.65.93,12.55,3.08.23.13.5.23.67.41,2.11,2.25,4.95,2.54,7.79,2.99,3.48.54,6.85,1.41,10.09,2.92,1.44.67,3.24.59,4.87.86,3.46.58,6.92,1.16,10.38,1.76.52.09,1.01.3,1.51.48,2.38.89,2.98,1.71,2.5,4.15-.52,2.65-.28,5.24-.04,7.88.16,1.75-.07,3.56-.34,5.3-.23,1.48-1.31,2.37-2.78,2.8-.29.08-.62.27-.79.51-.95,1.28-1.85,2.6-2.82,3.98,3.18.56,6.46,1.41,9.8.58,3-.74,4.29-3.6,3.11-6.42-.14-.33-.1-.74-.14-1.11.42.1.9.1,1.23.32,2.06,1.36,2.91,3.33,2.53,5.7-.42,2.61-1.97,4.4-4.59,5.16-2.43.71-4.88.43-7.3-.09-2.1-.45-4.18-.97-6.38-1.49.31.99.53,1.88.86,2.71.09.23.48.41.77.51,3.27,1.09,3.45,1.26,2.71,4.52-.59,2.6-1.22,5.22-2.21,7.69-.63,1.57-1.86,2.96-3.02,4.25-.62.7-1.66,1.04-2.73,1.67-.04-.81-.06-1.28-.08-1.74-.12-2.1-1.26-3.38-3.39-3.45-1.73-.06-3.46.19-5.2.29-2.17.13-4.34.27-6.65.41-.14,1.45.54,2.85,1.8,3.77,1.62,1.19,3.37,2.31,5.22,3.09,3.85,1.63,7.83,2.99,11.73,4.53,4.19,1.65,8.33,3.45,11.8,6.36,1.79,1.51,3.35,3.29,5.07,5,1.54-1,3.15-2.18,4.88-3.15,3.09-1.74,6.25-3.34,9.37-5.03.82-.45,1.63-.94,2.38-1.51.91-.69,1.43-1.67,1.39-2.81-.08-2.68-.03-5.37-.37-8.02-.83-6.44,2.87-12.68,8.81-14.49,2.84-.86,5.61-.64,8.28.66,1.12.54,2.55.95,1.53,2.75,2.7.88,5.04,2.11,6.99,3.99-.4.67-.76,1.27-1.16,1.94.31.19.59.3.8.48,1.31,1.11,2.72,2.13,3.89,3.37,1.14,1.21,1.05,1.38-.02,2.6-2.2,2.52-2.87,5.58-3.34,8.74-.37,2.53-.77,5.07-1.38,7.56-1,4.06-3.3,7.33-6.86,9.66-3.25,2.12-6.59,4.09-9.8,6.27-1.64,1.11-3.14,2.46-4.56,3.83-1.33,1.29-1.77,2.99-1.21,4.74.31.96,1.08,1.77,1.74,2.81-2.3,2.66-5.6,3.34-9.35,3.16.65,1.88,2.2,2.54,3.81,3.18-1.52,3.1-3.93,4.81-7.38,5.05-1.36.09-2.72.1-4.08.18-2.31.14-2.61.4-3.25,2.71.23.08.45.19.69.23,5.55,1.09,10.93,2.71,16.11,4.96,1.17.51,2.38.95,3.6,1.36,3.4,1.15,6.46.52,9.24-1.73,2.13-1.73,4.25-3.49,6.51-5.05,5.06-3.49,11.45-3.74,16.13-.66,4.48,2.95,6.28,7.26,6.25,12.43,0,.22-.07.43-.11.67-.51.04-.98.08-1.42.11.11,2.06.22,4.03.33,5.98-.4.07-.51.11-.61.1-1.1-.18-1.64.1-1.63,1.37.01,1.98-.48,3.89-1.45,5.77-4.16-1.56-7.68-.11-11.11,2.09-2.4,1.54-4.86,3.04-7.46,4.2-3.85,1.72-7.93,1.26-11.94.49-2.74-.53-5.43-1.3-8.16-1.88-2.55-.54-3.58-.02-3.96,2.55-.02.14-.07.27-.13.49-3.38-.6-6.09-2.02-7.55-5.36-1.89,1.61-1.53,3.8-1.7,5.84-3.49-.37-6.59-1.35-8.89-4.17-2.11,3.14-4.98,4.89-8.96,4.94.11-2.22-.08-4.28-1.61-5.78-2.98,2.58-5.92,5.12-8.92,7.72.95.49,2,1.03,3.04,1.58,7.8,4.12,15.24,8.76,21.72,14.75,4.5,4.16,8.44,8.76,10.87,14.43,3.2,7.47,1.86,15-4.1,20.62-3.23,3.05-6.89,5.7-10.48,8.36-3.63,2.68-7.4,5.18-11.14,7.71-.69.46-.86.87-.56,1.64,1.67,4.28,3.8,8.26,7.09,11.58,1.97,1.99,4.21,2.67,6.9,1.72,2.13-.76,4.27-1.52,6.4-2.29,3.21-1.17,6.46-1.55,9.78-.46,4.51,1.49,7.72,5.7,7.76,10.39.02,1.83-.25,3.66-.4,5.58-.88-.16-1.42-.26-2.06-.38-.19,2.77-.63,5.39-1.89,7.8-.71-.26-1.38-.5-2.13-.77-.77,2.7-1.6,5.28-3.65,7.41-2.57-2.11-5.67-1.83-8.67-1.86-3.9-.03-7.8.09-11.7.11-1.06,0-2.12-.08-3.17-.21-3.01-.36-5.43-1.67-7.17-4.19-1.34-1.94-2.76-3.83-4.18-5.71-1.89-2.5-3.54-2.7-6.01-.81-1.32-1.24-1.91-3.02-1.96-5.93-1.2-.36-1.22-.36-4.84,1.95-1.66-2.47-2.02-5.23-1.86-8.24Zm91.08-119.62c-.86-.48-1.77-1.16-2.8-1.54-4.32-1.6-8.27-.59-11.87,1.98-1.93,1.38-3.71,2.94-5.57,4.41-4.39,3.45-9.06,4.21-14.28,1.8-5.33-2.47-11.05-3.76-16.8-4.9-2.95-.59-5.95-1.2-8.75-2.26-4.54-1.73-6.76-5.39-7.45-10.02-.07-.45.07-.93.11-1.4.12-.01.23-.03.35-.04.18.3.36.6.54.91.7,1.19,1.34,2.42,2.11,3.57,1.65,2.47,3.83,4.29,6.81,5.07.6.16.89.04,1.14-.5,2.34-5.18,3.4-10.61,3.28-16.27,0-.21-.05-.49-.19-.6-.89-.69-1.82-1.35-2.75-2.03-.08,3.8-.63,7.48-3.09,10.9-.52-2.47-1.44-4.48-3.18-5.87-1.65-1.33-3.57-2.34-5.64-3.66,3.3-.69,5.82.52,8.38,2.44,1.34-8.03-.69-14.7-6.88-20.13.62,0,1.15.08,1.6.32,4.76,2.42,7.31,6.41,8.3,11.48.06.32.08.73.28.93,1.07,1,2.15,1.98,3.3,2.89.72.56,1.59.78,2.62.43-1.56-2.21-1.74-4.74-2.31-7.14-1.37-5.74-3.94-10.77-8.85-14.39-3.24-2.39-6.94-3.92-10.7-5.32-4.66-1.74-9.37-3.36-14.03-5.11-3.61-1.36-6.1-3.81-6.99-7.62-.22-.94-.34-1.9-.54-2.85-.06-.26-.15-.59-.35-.74-1.16-.93-2.35-1.82-3.68-2.84-.45,1.1-.93,2.28-1.4,3.45-2.65-1.21-3.95-3.01-5.32-7.22-1.56,1.05-3.07,2.39-4.83,3.17-1.91.85-3.98.35-6.08-.47,2.11-2.05,2.06-4.43,1.49-6.94-.62-2.76-.06-5.26,2-7.32.42-.42,1.03-.67,1.55-1,.09.11.19.22.28.34-.23.36-.46.73-.69,1.09-1.12,1.81-1.74,3.73-1.13,5.85.56,1.95,1.39,3.85.59,5.94,1.69.02,2.7-.44,3.89-1.76.83-.92,1.56-1.92,2.44-2.79.77-.76,1.68-1.38,2.9-1.06-.2,2.74-.3,5.38,1.73,7.62,2.04-2.54,2.81-3.15,4.28-3.43.06.09.15.17.18.28,1.13,4.12,5.08,5.98,8.34,5.74,2.7-.2,5.39-.72,8.07-1.17,3.48-.58,6.49.02,8.61,3.28,1.64-2.42,2.42-5.02,2.83-7.76.13-.9-.22-1.36-1.04-1.69-2.68-1.09-5.41-.77-8.15-.35-2.83.44-5.66.98-8.51,1.18-2.42.17-4.1-1.12-5.13-3.33-2.05-4.42-.11-12.88,7.57-14,2.72-.39,5.57-.07,8.35.04,2.79.11,5.57.47,8.36.52,1.65.03,2.28-.67,2.65-2.23.45-1.88.15-3.7-.5-5.47-.12-.32-.52-.57-.85-.76-.91-.53-1.9-.93-2.75-1.52-.7-.49-1.2-1.21-.75-2.3.43.25.75.52,1.13.64.7.23,1.43.51,2.15.5,1.39,0,1.28-1.23,1.52-2.12.23-.86-.32-1.15-1.05-1.38-4.36-1.39-8.82-2.03-13.41-1.89-.96.03-1.63.21-2.02,1.18-.22.52-.7.97-1.15,1.37-.81.73-1.05,1.63-1.26,2.66-.32,1.55-.8,3.08-1.36,4.57-.22.59-.82,1.05-1.25,1.57-.13-.06-.25-.12-.38-.19.22-1.02.45-2.04.65-3.07.4-2.05-.21-3.31-2.07-4.23-.88-.43-1.84-.71-2.68-1.19-.66-.38-1.3-.89-1.75-1.5-.26-.34-.28-1.06-.08-1.45.13-.25.88-.34,1.31-.26,1.86.34,3.69.8,5.56,1.12.46.08,1.16-.07,1.44-.38.53-.58.14-1.26-.41-1.63-.74-.49-1.55-.95-2.4-1.21-5.34-1.63-10.81-2.16-16.37-1.76-1.08.08-2.14.36-3.43.59,3.09,2.41,3.96,4.9,2.23,6.11-.75-1.71-1.98-2.98-3.64-3.85-2.43-1.26-5.03-1.82-7.76-1.79-3.31.03-4.13.65-4.5,3.83-.72,6.09,3.26,10.66,8.88,10.74.25,0,.49.07.89.12-.44,1.16-1.38,1.33-2.3,1.38-2.7.16-5.08-.66-7.05-2.49-4.04-3.74-4.6-8.32-3.27-13.34.35-1.32,1.31-2.16,2.58-2.42,1.69-.34,3.45-.68,5.15-.55,2.07.16,4.05.13,6.03-.44.32-.09.66-.15,1-.19,2.05-.22,4.1-.42,6.4-.65-.6-.33-1.01-.66-1.48-.79-2.1-.58-4.19-1.37-6.33-1.61-6.28-.72-12.53-.17-18.77.71-3.49.49-7,1.38-10.8.29,0,1.09.03,2.07-.02,3.05-.02.34-.11.76-.34,1-1,1.06-2.17,1.98-3.09,3.1-1.6,1.95-3.46,3.2-6.11,2.96-.05,0-.12.08-.42.32.35.89.73,1.87,1.12,2.84.45,1.11,1.5.14,2.18.56-.03.22-.02.41-.08.58-1.01,2.82-1.75,5.71-1.8,8.71-.05,3.13-1.39,5.24-4.44,6.25-1.39.46-1.54.8-.97,2.16.18.44.44.87.75,1.24,1.1,1.34,1.7,1.32,2.78,0,.35-.43.77-.83,1.23-1.14.29-.19.71-.19.98-.25-.34,2.11-.86,4.07-.93,6.05-.18,5.81,1.14,11.36,3.44,16.7,1.53,3.56,3.17,7.07,4.5,10.7,1.2,3.29.72,6.33-2.43,8.52-.05.04-.07.13-.1.19.88,1.95,5.04,3.02,7.54,2.05.28-.11.51-.53.61-.85.53-1.7.62-3.43.19-5.17-.07-.29-.08-.59-.11-.88l.4-.19c.46.62,1.04,1.2,1.37,1.88.74,1.56.94,3.27.55,4.91-.7,2.92-1.54,5.81-2.43,8.68-.87,2.82-1.75,5.62-1.67,8.6.05,1.8.34,3.57,1.25,5.04,1.58-.75,3.04-1.44,4.53-2.15.09-.58.17-1.24.29-1.9.47-2.48,1.43-4.71,3.58-6.26.38-.27.86-.4,1.48-.68-.07.46-.04.64-.12.74-2.2,2.94-2.46,6.35-2.35,9.8.08,2.67.45,5.34.61,8.01.18,2.93-.08,5.82-1.63,8.42-.48.8-1.15,1.5-1.78,2.3.4.15.74.3,1.1.4,4.37,1.19,10.99-1.64,13.04-5.59.15-.29.08-.78-.05-1.12-.34-.91-.83-1.76-1.14-2.67-.91-2.66-1.24-5.37-.44-8.11.23-.78.45-1.64,1.57-2.01-.09.86-.2,1.59-.23,2.31-.14,3.39,1.29,6.29,3,9.1,2.1,3.45,4.24,6.89,4.24,11.44,1.09-.75,2.04-1.24,2.78-1.94,1.96-1.86,2.85-4.26,3.16-6.87.15-1.22.18-2.46.27-3.79,2.11,1.51,1.96,7.83-.04,11.71-1.97,3.85-6.24,6.5-10.05,5.57.9-3.94.24-7.71-1.32-11.24-1.28,1.3-2.43,2.77-3.88,3.83-1.15.83-1.61,1.73-1.84,3.04-1,5.66-2.61,11.15-6.58,15.56-2.55,2.84-5.35,5.47-8.2,8.03-3.5,3.14-7.1,6.14-9.88,9.98-.68.94-1.63,1.77-2.62,2.4-4.2,2.69-8.83,4.17-13.83,4.57-8.08.66-15.22-3.35-18.3-10.37-1.9-4.32-2.24-8.85-1.56-13.46.83-5.63,2.73-10.97,4.96-16.17,3.72-8.66,7.68-17.23,11.36-25.91,4.04-9.52,7.69-19.17,8.18-29.64.26-5.68-.69-11.14-3.92-16-5.11-7.71-15.77-9.44-23.06-3.69-4.69,3.7-6.68,8.84-7.17,14.54-.35,4.04-.29,8.11-.5,12.16-.21,4.18-1.21,8.16-3.64,11.69-.52.75-1.02,1.52-1.61,2.39,2.76.35,5.26-.09,7.47-1.37,2.16-1.25,4.13-2.81,6.21-4.26.27.53.62,1.21,1.04,2.02,3.82-4.43,3.79-9.47,2.8-14.69,2.85.06,4.38-.77,5.11-2.71-5.7-1.66-8.48-5.3-8.27-10.81.16-4.06,3.54-7.81,7.62-8.42,5.23-.79,9.46,1.57,11.67,6.66,2.29,5.28,2.56,10.83,1.95,16.44-.54,4.98-1.87,9.82-3.92,14.38-3.96,8.8-8.12,17.52-12.27,26.23-3.14,6.6-6.49,13.1-8.82,20.04-2.42,7.21-3.27,14.5-1.25,21.95,2.46,9.07,7.95,15.33,17.36,17.88,5.12,1.39,10.32,1.29,15.55.7,1.14-.13,1.77-.5,2.18-1.61.36-.98,1.08-1.86,1.77-2.69.24-.29.86-.29,1.3-.43.05.41.16.83.13,1.24-.23,2.96-.68,5.92-.71,8.88-.07,5.06,1.23,9.93,2.54,14.79,1.05,3.88,2.16,7.75,1.72,11.84-.33,3.06-1.75,5.38-4.81,6.25-2.38.68-4.87,1.02-7.33,1.37-2.77.39-5.56.59-8.33.96-1.61.21-2.75,1.13-3.44,2.61-.49,1.05-1.05,2.06-1.56,3.1-1.26,2.58-3.35,4.16-6.11,4.96-.42.12-.85.23-1.33.36.12.24.18.41.29.56,1.23,1.69,3.04,2.34,5.02,2.74.89.18,1.52-.04,1.92-.76.65-1.17,1.21-2.38,1.8-3.58.15-.3.25-.62.48-1.19.72,1.43.4,2.57.08,3.63-1.38,4.55-4.45,7.47-9.16,8.82,1.41,2.19,3.43,3.14,5.83,3.38.59.06,1.3-.1,1.8-.41,1.87-1.14,3.06-2.84,3.75-4.88.13-.38.33-.74.5-1.11.13.02.26.04.39.06.03.59.15,1.2.09,1.78-.26,2.36-1.42,4.29-3.12,5.92-1.18,1.12-2.35,2.27-2.73,3.9-.23.96-.22,1.97-.31,2.86,1.55-.12,2.83-.47,4.01-.25,1.83.34,2.67-.6,3.38-1.89.38-.68.61-1.43.92-2.15.09-.21.21-.4.31-.6.38.41.63.84.56,1.21-.17,1.02-.36,2.06-.74,3.02-.47,1.21-1.19,2.32-1.71,3.52-.4.93-.73,1.93-.27,2.96,3.64-.78,5.05-.21,7.08,2.87.41.62.78,1.28,1.14,1.93,1,1.83,1.98,3.68,2.99,5.52,2.02,3.7,5.22,5.6,9.44,5.83,2.3.12,4.61.15,6.92.17,3.28.03,6.57,0,9.85,0,.97-3.72,2.44-6.86,6.3-8.26-.35-1.44-1.13-2.51-2.34-3.21-2.78-1.61-5.55-1.13-8.47.4.35-1.44,1.37-1.85,2.31-2.21,3.47-1.33,6.58-.67,9.18,1.76.87-.7,1.68-1.35,2.48-2-.7-1.52-1.87-2.75-3.44-3.53-3.14-1.57-6.18-1.05-9.28.41.36-.64.78-1.19,1.33-1.51,3.31-1.95,7.38-1.72,10.45.6.86.65,1.59,1.46,2.34,2.16.69-.53,1.39-1.07,2.11-1.63-1.23-2.4-3.23-3.87-5.81-4.63-2.74-.81-5.48-.48-8.19.14-2.98.68-5.91,1.54-8.9,2.18-1.86.4-3.37-.28-4.47-1.91-2.46-3.66-4.31-7.59-5.59-11.78-1.05-3.43-1.66-6.94-1.76-10.53-.04-1.56.21-1.89,1.73-2.22,2.1-.46,4.21-.91,6.31-1.38,5.95-1.33,11.84-2.85,17.41-5.34,5.34-2.39,9.28-6.03,10.98-11.77,1.52-5.14,2.23-10.4,2.69-15.69.62-7.12,1.05-14.25,1.66-21.37.24-2.85.74-5.71,2.21-8.24.6-1.03,1.57-1.86,2.44-2.72.2-.2.68-.13,1.03-.18,0,.34.02.7-.04,1.03-.05.25-.26.46-.34.7-.49,1.52-.97,3.04-1.45,4.55,1.95-.91,3.57-1.94,5.26-2.84,4.56-2.42,9.26-4.61,13.71-7.2,4.4-2.56,8.52-5.56,12.03-9.28,1.33-1.41,1.29-1.44,0-3.02-2.63,2.8-5.73,4.63-9.81,4.66.02-.32.02-.46.04-.6.56-3.51-.37-6.47-3.3-8.72-1.37-1.05-2.68-2.18-4-3.3-2.22-1.87-3.62-4.23-3.93-7.08-.4-3.66-.61-7.34-.92-11-.29-3.36-.91-6.63-2.88-9.51-.15-.22-.2-.49-.3-.74l.24-.23c.45.29.94.53,1.33.88,1.58,1.41,2.72,3.18,3.15,5.2.82,3.77,1.58,7.57,2.03,11.4.52,4.51,2.18,8.24,6.16,10.77.29.18.54.41.81.61,2.85,2.06,5.08,4.48,4.92,8.28,1.85-.37,4-1.86,4.67-3.38.9-2.02-.46-3.49-1.61-5.12,1.16-.28,1.93.2,2.46.9.65.85,1.2,1.8,1.67,2.77,1.01,2.06,2.08,4.06,3.81,5.64,1.88,1.71,3.7,3.45,3.98,6.26,1.95-.79,3.39-1.92,4.19-3.72.18-.42.28-.94.21-1.39-.18-1.1-.5-2.17-.71-3.26-.29-1.49-.95-2.73-2.21-3.64-.2-.14-.31-.4-.47-.6.59-.18,1.04-.17,1.44-.04,1.62.54,2.63,1.72,3.21,3.25.44,1.15.72,2.35,1.18,3.49,1.07,2.68,2.97,4.48,5.91,5.29.1-.39.16-.64.21-.88.38-1.74,1-3.4,2.45-4.55.75-.59.74-1.16.39-1.81-.32-.58-.81-1.06-1.22-1.58-.17-.21-.34-.41-.5-.62,1.37-.14,2.41.38,3.06,1.36.76,1.14,1.33,2.41,1.96,3.63.79,1.52,1.76,2.86,3.53,3.52.96-2.3,2.89-2.67,5.07-2.52.34.02.68.05,1.01.12,2.91.65,5.82,1.31,8.74,1.97,4.87,1.1,9.47.7,13.64-2.28,2.82-2.01,5.63-4.05,8.98-4.83.14-1.8.19-3.46.4-5.11.22-1.72,1.24-3.06,2.54-4.17-2.73-2.99-6.17-2.67-11.06,1.03.17-1.46,1.01-2.36,1.97-3.12,2.76-2.17,5.81-2.17,8.85-1,.35-1.11.68-2.15,1.05-3.31-1.73-1.46-3.9-1.85-6.23-1.72-2.36.13-4.23,1.27-5.92,2.82.18-1.53,1.2-2.41,2.35-3.12,3.39-2.1,6.84-1.92,10.21-.06.41-.89.78-1.68,1.24-2.69Zm-89.9,116.58c1.44-2.06,3.44-3.8,3.23-6.69.44.54.67,1.05.75,1.58.27,1.67-.37,3.14-1.18,4.55-1.43,2.47-1.88,5.05-1.06,7.57,1.62-.37,3.18-.71,4.73-1.09.22-.05.5-.21.6-.4.42-.82.87-1.65,1.15-2.52.18-.56.1-1.2.14-1.81.1-.03.2-.06.3-.09.19.36.42.69.55,1.07.51,1.48.02,2.87-.47,4.24-.57,1.59-.69,3.18-.09,4.84.43-.11.83-.22,1.23-.32,1.99-.47,3.67.02,5,1.57.46.54.87,1.12,1.31,1.69,1.47,1.94,2.94,3.88,4.42,5.81,1.04,1.37,2.48,2.07,4.17,2.21,1.62.14,3.24.23,4.87.2,4.15-.08,8.3-.23,12.53-.36.74-3.54,2.36-6.57,6.16-8.02-.61-1.72-1.71-2.94-3.32-3.66-2.87-1.29-5.54-.84-8.04,1.24.86-4.26,7.41-4.35,12.29-.44.74-.83,1.47-1.65,2.23-2.51-.9-1.68-2.33-2.86-4.16-3.54-2.97-1.1-5.82-.79-8.53.95.35-1.32,1.34-1.97,2.47-2.38,4.06-1.48,7.63-.44,10.79,2.17.53-.79,1.03-1.54,1.58-2.35-1.9-2.15-4.24-3.7-7.31-3.41-2.16.2-4.31.71-6.41,1.28-2.22.59-4.36,1.46-6.56,2.12-2.56.77-4.81.21-6.81-1.59-4.21-3.77-7.36-8.29-9.75-13.32-1.3-2.73-1.05-3.26,1.6-4.86,5.76-3.46,11.27-7.27,16.46-11.51,3.21-2.63,6.29-5.38,8.36-9.03,1.69-2.99,2.18-6.14,1.26-9.47-1.48-5.36-4.53-9.82-8.48-13.65-8.59-8.34-19.02-13.88-29.92-18.68-.34-.15-.88-.06-1.24.11-2.12.98-4.22,2.01-6.32,3.03-.52.25-1.02.53-1.66.86.75.42,1.35.72,1.91,1.09,2.42,1.59,2.41,2.84-.04,4.37-4.09,2.55-7.85,5.43-10.55,9.5-.85,1.28-2.15,2.27-3.24,3.4-.18.18-.46.36-.48.57-.11.98-.14,1.97-.21,2.99.36.02.58.04.8.05,5.77.29,11.45,1.1,16.88,3.13,5.29,1.98,9.86,4.88,12.84,9.8,1.46,2.41,1.97,5,1.31,7.72-1.11,4.6-4.14,7.59-8.55,9.25-2.75,1.03-5.54,1.96-8.32,2.94-1.82.64-3.06,1.87-3.72,3.66-1.07,2.88-2.44,5.55-5.58,6.94,1.05,1.32,2.39,1.78,3.8,2.09.79.18,1.42-.02,2.05-.59,1.45-1.33,2.36-2.88,2.5-4.85.02-.31.11-.61.17-.92.1-.02.19-.04.29-.05.16.37.41.73.47,1.11.25,1.71,0,3.34-1.07,4.77-.76,1.02-1.58,2-2.35,3.01-1.33,1.74-1.96,3.66-1.47,5.97,1.8-1.05,3.65-1.74,5.7-1.35Zm68.49-170.66c-3.13-1.74-2.56-7.58.83-11.32-.82-1.15-1.62-2.29-2.47-3.49-2.05.78-3.62,2.26-4.12,4.52-.3,1.35-.17,2.8-.21,4.2-.01.48.05.96.08,1.62-2.11-1.99-2.84-7.63,1.5-11.52-.64-.53-1.29-1.07-2.01-1.67-2.31,1.2-3.94,3.07-4.44,5.73-.26,1.41-.31,2.89-.27,4.33.07,2.71.3,5.42.4,8.13.09,2.54-.98,4.56-3.12,5.98-1.12.75-2.29,1.45-3.5,2.06-4.19,2.11-8.11,4.62-11.69,7.64-.72.6-.91,1.08-.56,2.04.77,2.12,1.43,4.31,1.89,6.52.67,3.2.88,6.54,3.95,9.08-1.37.67-2.48,1.21-3.48,1.7-.45,3.64-.91,7.31-1.34,10.78,1.51,0,3.19,0,4.87,0,1.25,0,2.35-.35,3.22-1.28-2.51-3.04-3.03-7.54-1.12-8.52.28.55.46,1.49.86,1.59,2.14.55,4.24.33,6.23-.76-.25-.72-.53-1.34-.68-1.98-.67-2.77.5-5.02,2.21-7.07,1.99-2.39,4.52-4.17,7.12-5.85,2.88-1.86,5.83-3.62,8.63-5.57,2.86-1.99,4.68-4.73,5.18-8.2.54-3.74,1.01-7.49,1.54-11.36-2.78-1.58-5.5-3.5-5.54-7.57-5.06,2.11-5.08,5.95-3.99,10.26Zm-49.81-29.22c-.55-1.42-.97-2.59-1.47-3.72-.1-.22-.53-.41-.82-.43-2.78-.17-5.57-.53-8.34-.39-4.23.21-6.97,3.34-6.67,7.26,5.18-3.78,11.03-3.58,17.3-2.72Zm-21.27,128.7c-1.07-1.29-3.27-2.06-4.53-1.39-2.48,1.31-4.9,2.74-7.28,4.24-.48.3-.7,1.08-.9,1.68-.17.52-.17,1.1-.18,1.66-.02,1.45,0,2.91,0,4.36.14.1.27.2.41.31.53-.67,1.11-1.3,1.59-2,2.26-3.35,5.49-5.59,8.91-7.61.67-.4,1.32-.82,2-1.24Zm19.16-126.11c-1.14-.15-2.03-.32-2.93-.37-3.63-.23-7.12.15-10.06,2.53-.49.4-.73,1.09-1.09,1.65.71.34,1.41.72,2.15,1.02.21.09.52-.02.78-.07,2.11-.43,4.2-1.05,6.32-1.26,2.33-.22,3.4-1.8,4.82-3.49Zm-47.58,224.99c-2.43.46-4.66,3.62-4.62,6.28.86.53,1.68,1.04,2.57,1.59,1.59-2.38,2.67-4.88,2.05-7.87Zm78.5-4.26c1.37-2.2,1.96-5.64,1.26-7.3-2.17.37-4.26,3.27-4.44,6.17,1.02.36,2.05.72,3.18,1.12Zm41.17-127.32c-1.92,1.32-2.72,4.59-1.84,7.15,1.03.05,2.07.1,3.2.16.36-2.59.21-5.02-1.36-7.31Zm-7.78-73.94c-1.2-1.93-4.25-3.33-6.22-2.83-.21,2.02,1.81,4.48,4.41,5.39.6-.85,1.2-1.7,1.81-2.56Zm-3.98-5.49c-.25-.43-.35-.81-.6-.98-2.22-1.46-4.56-2.49-7.35-1.79.3,1.98,1.85,3.03,3.6,2.8,1.29-.17,2.61-.03,4.35-.03Zm-104.47,205.52c-1.85.74-2.07,1.36-1.65,2.98.39,1.53.62,3.12.75,4.7.06.75.18,1.12,1.11,1.01.83-2.88,1.16-5.74-.21-8.69Zm117.33-132.47c-.8,1.1-1.01,2.59-.58,3.25.94,1.42,1.84,2.86,2.79,4.28.12.18.39.26.59.38.1-.21.3-.42.29-.62-.04-.63-.09-1.27-.25-1.87-.53-1.98-1.2-3.89-2.83-5.42Zm-36.99,128.22c.68-2.53.88-4.96-.36-7.37-1.28.78-2,2.1-1.75,2.96.35,1.24.74,2.48.97,3.75.13.71.42.86,1.14.67Zm-75.92,4.77c-.19-.94-.34-1.97-.61-2.96-.12-.45-.33-1.22-1.02-.76-.51.33-1.16,1.08-1.09,1.53.28,1.73.82,3.42,1.3,5.12.06.2.29.36.45.54.15-.18.38-.34.42-.54.21-.93.36-1.88.55-2.93Zm116.73-130.78c.91-1.49-.84-5.97-2.53-6.8-.77,1.17-.7,2.03.09,3.1.71.95,1.3,1.99,1.95,2.98.15.23.3.44.49.71Zm-29.63-80.98c.62.84,1.42,1.24,2.36,1.09,1.22-.2,2.41-.55,3.6-.86.15-.04.35-.18.38-.31.02-.12-.13-.33-.26-.4-1.14-.59-4.73-.95-6.08.48Zm-9.14,194.16c-.88.79-1.52,1.52-1.17,2.51.35,1,.93,1.93,1.43,2.88.08.16.28.3.46.35.07.02.31-.22.32-.36.18-1.82.06-3.59-1.04-5.38Zm-35.25-209.1c.29,1.04.56,2,.93,3.34.88-1.23,1.56-2.19,2.38-3.34h-3.31Zm-3.22,10.05c.95.08,1.68.14,2.65.21-.27-.96-.48-1.75-.76-2.75-.71.96-1.24,1.66-1.89,2.53Z"></path>
      <path d="m435.31,351.07h-54.87v-54.07h54.87v54.07Zm-1.07-1.41v-51.63h-52.47c17.48,17.2,34.97,34.41,52.47,51.63Z"></path>
      <path class="cls-1" d="m350.21,306.23c-.47,1.01-.83,1.8-1.24,2.69-3.37-1.85-6.83-2.03-10.21.06-1.15.71-2.17,1.59-2.35,3.12,1.7-1.56,3.56-2.7,5.92-2.82,2.33-.13,4.51.26,6.23,1.72-.37,1.16-.7,2.2-1.05,3.31-3.04-1.17-6.09-1.17-8.85,1-.96.76-1.8,1.66-1.97,3.12,4.89-3.7,8.33-4.02,11.06-1.03-1.3,1.11-2.31,2.45-2.54,4.17-.21,1.65-.27,3.31-.4,5.11-3.35.77-6.16,2.81-8.98,4.83-4.17,2.98-8.77,3.39-13.64,2.28-2.91-.66-5.82-1.32-8.74-1.97-.33-.07-.67-.1-1.01-.12-2.18-.15-4.11.22-5.07,2.52-1.77-.66-2.74-1.99-3.53-3.52-.63-1.22-1.2-2.49-1.96-3.63-.65-.98-1.69-1.5-3.06-1.36.17.21.34.41.5.62.42.52.91,1.01,1.22,1.58.36.65.36,1.22-.39,1.81-1.44,1.14-2.07,2.8-2.45,4.55-.05.25-.12.49-.21.88-2.94-.82-4.84-2.62-5.91-5.29-.46-1.14-.74-2.34-1.18-3.49-.58-1.53-1.59-2.71-3.21-3.25-.4-.13-.85-.14-1.44.04.15.2.27.46.47.6,1.26.91,1.92,2.15,2.21,3.64.21,1.09.54,2.17.71,3.26.07.44-.02.97-.21,1.39-.8,1.8-2.23,2.93-4.19,3.72-.28-2.8-2.1-4.55-3.98-6.26-1.73-1.57-2.8-3.58-3.81-5.64-.47-.97-1.02-1.91-1.67-2.77-.54-.7-1.3-1.18-2.46-.9,1.15,1.62,2.5,3.1,1.61,5.12-.67,1.52-2.83,3-4.67,3.38.16-3.79-2.07-6.22-4.92-8.28-.27-.2-.53-.43-.81-.61-3.98-2.53-5.63-6.26-6.16-10.77-.44-3.83-1.21-7.63-2.03-11.4-.44-2.02-1.57-3.79-3.15-5.2-.39-.35-.88-.59-1.33-.88l-.24.23c.1.25.15.53.3.74,1.97,2.87,2.6,6.14,2.88,9.51.31,3.67.52,7.35.92,11,.31,2.85,1.72,5.21,3.93,7.08,1.32,1.11,2.63,2.25,4,3.3,2.93,2.25,3.86,5.2,3.3,8.72-.02.14-.02.29-.04.6,4.08-.03,7.18-1.86,9.81-4.66,1.29,1.58,1.33,1.61,0,3.02-3.51,3.72-7.63,6.72-12.03,9.28-4.46,2.59-9.15,4.78-13.71,7.2-1.69.9-3.3,1.93-5.26,2.84.48-1.52.96-3.04,1.45-4.55.08-.24.29-.45.34-.7.07-.33.03-.68.04-1.03-.35.05-.83-.02-1.03.18-.87.86-1.84,1.69-2.44,2.72-1.47,2.53-1.97,5.39-2.21,8.24-.61,7.12-1.03,14.25-1.66,21.37-.46,5.3-1.17,10.56-2.69,15.69-1.7,5.73-5.63,9.38-10.98,11.77-5.58,2.49-11.47,4.01-17.41,5.34-2.1.47-4.21.92-6.31,1.38-1.52.33-1.77.66-1.73,2.22.1,3.59.71,7.1,1.76,10.53,1.28,4.19,3.14,8.12,5.59,11.78,1.1,1.64,2.61,2.31,4.47,1.91,2.99-.64,5.92-1.5,8.9-2.18,2.71-.62,5.45-.94,8.19-.14,2.58.76,4.58,2.23,5.81,4.63-.72.56-1.42,1.09-2.11,1.63-.76-.7-1.48-1.52-2.34-2.16-3.07-2.32-7.13-2.55-10.45-.6-.55.32-.97.88-1.33,1.51,3.1-1.46,6.14-1.98,9.28-.41,1.57.79,2.75,2.01,3.44,3.53-.81.65-1.61,1.3-2.48,2-2.6-2.43-5.71-3.09-9.18-1.76-.94.36-1.96.77-2.31,2.21,2.92-1.52,5.69-2,8.47-.4,1.21.7,1.99,1.77,2.34,3.21-3.85,1.39-5.32,4.54-6.3,8.26-3.28,0-6.57.02-9.85,0-2.31-.02-4.62-.05-6.92-.17-4.22-.22-7.41-2.13-9.44-5.83-1-1.83-1.98-3.68-2.99-5.52-.36-.65-.73-1.31-1.14-1.93-2.03-3.08-3.44-3.66-7.08-2.87-.47-1.04-.13-2.03.27-2.96.51-1.2,1.23-2.31,1.71-3.52.38-.96.57-2,.74-3.02.06-.38-.19-.8-.56-1.21-.11.2-.23.4-.31.6-.31.72-.54,1.47-.92,2.15-.72,1.29-1.56,2.24-3.38,1.89-1.18-.22-2.47.13-4.01.25.09-.89.09-1.91.31-2.86.39-1.62,1.55-2.77,2.73-3.9,1.7-1.63,2.86-3.56,3.12-5.92.06-.58-.05-1.19-.09-1.78-.13-.02-.26-.04-.39-.06-.17.37-.37.73-.5,1.11-.7,2.05-1.88,3.74-3.75,4.88-.5.3-1.21.46-1.8.41-2.4-.24-4.42-1.19-5.83-3.38,4.71-1.35,7.78-4.28,9.16-8.82.32-1.07.65-2.2-.08-3.63-.23.57-.34.89-.48,1.19-.59,1.2-1.15,2.41-1.8,3.58-.4.71-1.04.93-1.92.76-1.99-.39-3.79-1.04-5.02-2.74-.11-.15-.17-.32-.29-.56.49-.13.91-.24,1.33-.36,2.75-.8,4.84-2.38,6.11-4.96.51-1.04,1.07-2.05,1.56-3.1.69-1.47,1.83-2.39,3.44-2.61,2.77-.37,5.57-.56,8.33-.96,2.46-.35,4.95-.69,7.33-1.37,3.06-.87,4.48-3.19,4.81-6.25.45-4.1-.67-7.97-1.72-11.84-1.31-4.86-2.61-9.73-2.54-14.79.04-2.96.48-5.92.71-8.88.03-.41-.08-.82-.13-1.24-.44.13-1.05.13-1.3.43-.69.82-1.41,1.7-1.77,2.69-.41,1.12-1.04,1.49-2.18,1.61-5.23.58-10.43.68-15.55-.7-9.4-2.55-14.89-8.81-17.36-17.88-2.02-7.44-1.17-14.73,1.25-21.95,2.33-6.94,5.68-13.45,8.82-20.04,4.15-8.72,8.31-17.43,12.27-26.23,2.05-4.56,3.37-9.4,3.92-14.38.61-5.61.34-11.16-1.95-16.44-2.2-5.09-6.43-7.45-11.67-6.66-4.08.61-7.46,4.35-7.62,8.42-.21,5.51,2.57,9.15,8.27,10.81-.73,1.94-2.26,2.77-5.11,2.71.99,5.22,1.02,10.26-2.8,14.69-.42-.81-.77-1.5-1.04-2.02-2.08,1.45-4.05,3.01-6.21,4.26-2.21,1.28-4.71,1.72-7.47,1.37.59-.87,1.09-1.64,1.61-2.39,2.43-3.53,3.42-7.51,3.64-11.69.21-4.05.15-8.12.5-12.16.49-5.71,2.48-10.84,7.17-14.54,7.29-5.75,17.95-4.02,23.06,3.69,3.22,4.87,4.18,10.32,3.92,16-.48,10.47-4.13,20.13-8.18,29.64-3.69,8.68-7.64,17.25-11.36,25.91-2.24,5.21-4.14,10.54-4.96,16.17-.68,4.61-.33,9.14,1.56,13.46,3.08,7.01,10.22,11.03,18.3,10.37,5-.41,9.63-1.88,13.83-4.57.99-.63,1.94-1.46,2.62-2.4,2.77-3.84,6.38-6.84,9.88-9.98,2.85-2.56,5.65-5.19,8.2-8.03,3.96-4.41,5.57-9.89,6.58-15.56.23-1.31.7-2.2,1.84-3.04,1.46-1.06,2.6-2.54,3.88-3.83,1.56,3.53,2.22,7.3,1.32,11.24,3.81.93,8.07-1.72,10.05-5.57,2-3.89,2.15-10.21.04-11.71-.09,1.33-.12,2.57-.27,3.79-.31,2.61-1.2,5.01-3.16,6.87-.74.7-1.69,1.19-2.78,1.94,0-4.56-2.14-7.99-4.24-11.44-1.7-2.8-3.13-5.71-3-9.1.03-.73.14-1.45.23-2.31-1.12.37-1.34,1.23-1.57,2.01-.8,2.75-.47,5.46.44,8.11.31.91.8,1.76,1.14,2.67.13.34.2.83.05,1.12-2.05,3.95-8.67,6.77-13.04,5.59-.36-.1-.7-.25-1.1-.4.63-.8,1.3-1.5,1.78-2.3,1.55-2.61,1.81-5.49,1.63-8.42-.16-2.67-.53-5.33-.61-8.01-.11-3.45.15-6.86,2.35-9.8.08-.1.05-.28.12-.74-.62.28-1.1.4-1.48.68-2.15,1.55-3.11,3.77-3.58,6.26-.12.66-.2,1.32-.29,1.9-1.5.71-2.95,1.4-4.53,2.15-.91-1.47-1.19-3.24-1.25-5.04-.08-2.98.79-5.79,1.67-8.6.89-2.87,1.72-5.76,2.43-8.68.4-1.65.19-3.36-.55-4.91-.33-.69-.9-1.26-1.37-1.88l-.4.19c.04.29.04.6.11.88.43,1.74.34,3.47-.19,5.17-.1.32-.33.74-.61.85-2.5.97-6.66-.11-7.54-2.05.03-.07.05-.16.1-.19,3.15-2.19,3.63-5.23,2.43-8.52-1.33-3.63-2.97-7.15-4.5-10.7-2.3-5.34-3.62-10.89-3.44-16.7.06-1.98.59-3.95.93-6.05-.27.06-.69.06-.98.25-.46.31-.88.71-1.23,1.14-1.08,1.32-1.68,1.34-2.78,0-.3-.37-.56-.8-.75-1.24-.57-1.36-.42-1.69.97-2.16,3.05-1.01,4.39-3.12,4.44-6.25.05-2.99.79-5.88,1.8-8.71.06-.17.05-.36.08-.58-.68-.42-1.73.55-2.18-.56-.39-.97-.77-1.95-1.12-2.84.3-.24.37-.33.42-.32,2.65.24,4.52-1.01,6.11-2.96.92-1.12,2.08-2.04,3.09-3.1.22-.23.32-.66.34-1,.04-.98.02-1.96.02-3.05,3.81,1.09,7.31.2,10.8-.29,6.24-.87,12.5-1.42,18.77-.71,2.15.25,4.23,1.03,6.33,1.61.47.13.88.47,1.48.79-2.3.23-4.35.44-6.4.65-.34.04-.68.09-1,.19-1.98.58-3.96.6-6.03.44-1.69-.13-3.46.21-5.15.55-1.27.26-2.23,1.1-2.58,2.42-1.33,5.02-.77,9.6,3.27,13.34,1.98,1.83,4.35,2.66,7.05,2.49.91-.06,1.85-.22,2.3-1.38-.39-.06-.64-.12-.89-.12-5.62-.08-9.6-4.65-8.88-10.74.37-3.18,1.2-3.8,4.5-3.83,2.73-.02,5.33.53,7.76,1.79,1.66.86,2.89,2.14,3.64,3.85,1.73-1.21.86-3.7-2.23-6.11,1.28-.23,2.35-.52,3.43-.59,5.56-.4,11.04.14,16.37,1.76.85.26,1.66.71,2.4,1.21.55.36.94,1.04.41,1.63-.29.31-.98.46-1.44.38-1.86-.32-3.7-.79-5.56-1.12-.43-.08-1.18.01-1.31.26-.2.39-.17,1.11.08,1.45.45.6,1.09,1.12,1.75,1.5.84.48,1.81.76,2.68,1.19,1.86.92,2.46,2.18,2.07,4.23-.2,1.03-.43,2.05-.65,3.07.13.06.25.12.38.19.43-.52,1.03-.97,1.25-1.57.56-1.49,1.04-3.02,1.36-4.57.21-1.02.46-1.93,1.26-2.66.44-.4.93-.84,1.15-1.37.4-.96,1.06-1.15,2.02-1.18,4.59-.14,9.05.5,13.41,1.89.73.23,1.28.53,1.05,1.38-.24.89-.13,2.11-1.52,2.12-.72,0-1.45-.28-2.15-.5-.37-.12-.7-.39-1.13-.64-.45,1.09.05,1.81.75,2.3.85.6,1.84,1,2.75,1.52.33.19.73.45.85.76.65,1.77.95,3.6.5,5.47-.37,1.56-1.01,2.26-2.65,2.23-2.79-.06-5.57-.41-8.36-.52-2.78-.11-5.63-.43-8.35-.04-7.68,1.11-9.62,9.58-7.57,14,1.03,2.21,2.71,3.5,5.13,3.33,2.85-.2,5.68-.74,8.51-1.18,2.75-.43,5.47-.74,8.15.35.82.33,1.18.79,1.04,1.69-.41,2.74-1.18,5.34-2.83,7.76-2.12-3.26-5.12-3.86-8.61-3.28-2.68.45-5.36.96-8.07,1.17-3.27.24-7.21-1.62-8.34-5.74-.03-.1-.12-.19-.18-.28-1.47.28-2.24.88-4.28,3.43-2.03-2.23-1.93-4.88-1.73-7.62-1.22-.32-2.13.3-2.9,1.06-.88.87-1.61,1.87-2.44,2.79-1.19,1.32-2.2,1.78-3.89,1.76.8-2.09-.04-3.99-.59-5.94-.61-2.12.01-4.04,1.13-5.85.23-.37.46-.73.69-1.09-.09-.11-.19-.22-.28-.34-.52.33-1.13.58-1.55,1-2.06,2.06-2.62,4.56-2,7.32.57,2.52.62,4.89-1.49,6.94,2.1.82,4.17,1.32,6.08.47,1.76-.78,3.27-2.12,4.83-3.17,1.37,4.21,2.67,6.01,5.32,7.22.48-1.17.96-2.35,1.4-3.45,1.33,1.02,2.53,1.91,3.68,2.84.19.16.29.48.35.74.2.95.32,1.91.54,2.85.9,3.81,3.38,6.26,6.99,7.62,4.66,1.75,9.37,3.37,14.03,5.11,3.75,1.4,7.45,2.94,10.7,5.32,4.92,3.62,7.48,8.65,8.85,14.39.57,2.41.75,4.94,2.31,7.14-1.04.35-1.91.13-2.62-.43-1.15-.9-2.24-1.89-3.3-2.89-.21-.19-.22-.61-.28-.93-1-5.07-3.54-9.05-8.3-11.48-.45-.23-.99-.31-1.6-.32,6.19,5.42,8.22,12.1,6.88,20.13-2.56-1.92-5.08-3.13-8.38-2.44,2.07,1.32,3.99,2.34,5.64,3.66,1.74,1.39,2.66,3.4,3.18,5.87,2.46-3.43,3.01-7.1,3.09-10.9.93.68,1.85,1.33,2.75,2.03.14.11.18.39.19.6.12,5.66-.94,11.09-3.28,16.27-.25.55-.54.66-1.14.5-2.98-.78-5.16-2.6-6.81-5.07-.77-1.15-1.41-2.38-2.11-3.57-.18-.3-.36-.61-.54-.91-.12.01-.23.03-.35.04-.04.47-.18.95-.11,1.4.68,4.63,2.91,8.29,7.45,10.02,2.79,1.07,5.79,1.68,8.75,2.26,5.76,1.14,11.47,2.44,16.8,4.9,5.22,2.41,9.9,1.65,14.28-1.8,1.86-1.46,3.65-3.03,5.57-4.41,3.6-2.57,7.55-3.58,11.87-1.98,1.03.38,1.94,1.06,2.8,1.54Zm-123.88-49.56c-.12-.06-.24-.13-.36-.19-.39.5-.87.95-1.15,1.5-1.13,2.16-1.59,4.47-1.47,6.9.15,2.96,1.41,5.53,2.85,8.03,2.23,3.88,3.89,7.85,2.2,12.38,3.6.94,8.21-1.32,10.28-4.95,1.47-2.57,2.03-6.48.98-7.49-1.39,3.52-2.74,7.08-7,8.25-.19-1.04-.33-1.95-.54-2.85-.65-2.85-2.18-5.3-3.86-7.64-2.86-3.99-3.54-8.28-2.12-12.93.1-.32.13-.66.19-.99Zm41.08,40.88c.17,2.83,1.86,4.64,4.12,5.99,3.25,1.94,6.67,2.32,10.21.99-.48-1.13-1.15-2.11-1.29-3.17-.28-2.09-.34-4.21-.36-6.32-.03-2.75.22-5.5.07-8.24-.16-2.93-1.43-5.45-3.75-7.37-.33-.27-.76-.44-1.14-.65-.08.5,0,.78.14,1.01,2.25,3.65,2.69,7.56,1.93,11.71-.46,2.55-.72,5.15-.96,7.73-.08.85.15,1.74.24,2.74-3.86-.07-6.74-1.75-9.22-4.43Zm-55.47-61.45c-.15-.07-.3-.13-.44-.2-.42.86-.95,1.69-1.23,2.59-.76,2.47-.14,4.86.69,7.19.84,2.4,1.76,4.77.81,7.32,2.73,1.23,6.47.18,8.99-2.48,1.56-1.64,2.35-3.66,1.78-4.69-1.89,2.45-4.02,4.45-7.07,4.25-.88-2.11-1.56-3.98-2.43-5.77-.82-1.68-1.39-3.37-1.28-5.24.06-.99.12-1.98.18-2.97Zm22.35-36.36c.02.12.05.23.07.35.72.13,1.46.21,2.17.39,3.01.76,5.74,1.81,6,5.5.05.69.59.76,1.07.41.31-.23.55-.61.7-.97.63-1.54,0-3.26-1.65-4.46-2.03-1.47-4.34-2.05-6.83-1.82-.53.05-1.02.39-1.53.6Z"></path>
      <path class="cls-1" d="m260.31,422.81c-2.05-.39-3.9.3-5.7,1.35-.5-2.31.13-4.23,1.47-5.97.77-1.01,1.59-1.99,2.35-3.01,1.07-1.43,1.33-3.06,1.07-4.77-.06-.38-.31-.74-.47-1.11-.1.02-.19.04-.29.05-.06.31-.15.61-.17.92-.15,1.96-1.05,3.52-2.5,4.85-.63.57-1.26.77-2.05.59-1.41-.31-2.75-.77-3.8-2.09,3.15-1.38,4.51-4.05,5.58-6.94.67-1.79,1.9-3.01,3.72-3.66,2.77-.98,5.57-1.91,8.32-2.94,4.42-1.66,7.44-4.65,8.55-9.25.66-2.72.15-5.31-1.31-7.72-2.98-4.92-7.55-7.82-12.84-9.8-5.43-2.03-11.11-2.84-16.88-3.13-.22-.01-.44-.03-.8-.05.06-1.03.1-2.02.21-2.99.02-.2.31-.39.48-.57,1.09-1.13,2.4-2.12,3.24-3.4,2.7-4.08,6.45-6.96,10.55-9.5,2.45-1.53,2.46-2.78.04-4.37-.56-.37-1.16-.67-1.91-1.09.63-.33,1.14-.61,1.66-.86,2.1-1.02,4.2-2.05,6.32-3.03.36-.17.91-.25,1.24-.11,10.89,4.79,21.33,10.33,29.92,18.68,3.95,3.84,7,8.29,8.48,13.65.92,3.33.43,6.48-1.26,9.47-2.07,3.65-5.15,6.4-8.36,9.03-5.19,4.25-10.7,8.05-16.46,11.51-2.65,1.6-2.9,2.13-1.6,4.86,2.39,5.03,5.54,9.55,9.75,13.32,2.01,1.8,4.25,2.36,6.81,1.59,2.2-.66,4.34-1.53,6.56-2.12,2.1-.56,4.25-1.07,6.41-1.28,3.08-.29,5.41,1.27,7.31,3.41-.55.81-1.05,1.56-1.58,2.35-3.16-2.6-6.73-3.65-10.79-2.17-1.12.41-2.12,1.06-2.47,2.38,2.71-1.74,5.56-2.06,8.53-.95,1.82.68,3.26,1.86,4.16,3.54-.76.86-1.5,1.68-2.23,2.51-4.89-3.91-11.44-3.82-12.29.44,2.5-2.08,5.17-2.53,8.04-1.24,1.62.73,2.72,1.94,3.32,3.66-3.8,1.46-5.42,4.48-6.16,8.02-4.23.13-8.38.28-12.53.36-1.62.03-3.25-.06-4.87-.2-1.69-.14-3.13-.85-4.17-2.21-1.48-1.94-2.95-3.88-4.42-5.81-.43-.57-.84-1.15-1.31-1.69-1.32-1.56-3.01-2.04-5-1.57-.4.09-.79.2-1.23.32-.6-1.67-.48-3.25.09-4.84.49-1.37.97-2.76.47-4.24-.13-.37-.37-.71-.55-1.07-.1.03-.2.06-.3.09-.04.61.04,1.25-.14,1.81-.28.87-.73,1.7-1.15,2.52-.1.19-.38.34-.6.4-1.55.38-3.11.72-4.73,1.09-.82-2.52-.37-5.1,1.06-7.57.81-1.41,1.45-2.88,1.18-4.55-.08-.53-.32-1.03-.75-1.58.21,2.89-1.79,4.62-3.23,6.69Z"></path>
      <path class="cls-1" d="m328.8,252.15c-1.09-4.31-1.07-8.15,3.99-10.26.04,4.07,2.75,5.99,5.54,7.57-.52,3.87-1,7.62-1.54,11.36-.5,3.47-2.32,6.21-5.18,8.2-2.81,1.95-5.76,3.71-8.63,5.57-2.6,1.68-5.13,3.46-7.12,5.85-1.71,2.05-2.87,4.3-2.21,7.07.15.64.43,1.26.68,1.98-1.99,1.1-4.09,1.31-6.23.76-.4-.1-.58-1.04-.86-1.59-1.91.98-1.39,5.48,1.12,8.52-.87.93-1.98,1.28-3.22,1.28-1.68,0-3.36,0-4.87,0,.43-3.47.89-7.14,1.34-10.78,1-.49,2.11-1.03,3.48-1.7-3.07-2.54-3.28-5.88-3.95-9.08-.46-2.21-1.12-4.39-1.89-6.52-.35-.97-.15-1.44.56-2.04,3.58-3.02,7.5-5.53,11.69-7.64,1.21-.61,2.38-1.31,3.5-2.06,2.13-1.42,3.21-3.43,3.12-5.98-.1-2.71-.33-5.42-.4-8.13-.04-1.44,0-2.91.27-4.33.49-2.65,2.13-4.53,4.44-5.73.72.6,1.37,1.14,2.01,1.67-4.34,3.89-3.62,9.53-1.5,11.52-.04-.66-.1-1.14-.08-1.62.04-1.4-.09-2.85.21-4.2.5-2.26,2.07-3.73,4.12-4.52.85,1.2,1.65,2.33,2.47,3.49-3.39,3.74-3.96,9.58-.83,11.32Z"></path>
      <path class="cls-1" d="m278.99,222.93c-6.28-.86-12.12-1.05-17.3,2.72-.3-3.93,2.45-7.05,6.67-7.26,2.77-.14,5.56.22,8.34.39.29.02.72.2.82.43.51,1.13.92,2.3,1.47,3.72Z"></path>
      <path class="cls-1" d="m257.73,351.63c-.67.42-1.33.84-2,1.24-3.42,2.03-6.65,4.27-8.91,7.61-.48.7-1.05,1.34-1.59,2-.14-.1-.27-.2-.41-.31,0-1.45-.01-2.91,0-4.36,0-.56.01-1.14.18-1.66.2-.6.42-1.38.9-1.68,2.37-1.5,4.79-2.93,7.28-4.24,1.27-.67,3.46.11,4.53,1.39Z"></path>
      <path class="cls-1" d="m276.88,225.52c-1.43,1.69-2.5,3.27-4.82,3.49-2.13.2-4.22.83-6.32,1.26-.26.05-.57.16-.78.07-.73-.3-1.43-.67-2.15-1.02.36-.56.6-1.26,1.09-1.65,2.94-2.38,6.43-2.75,10.06-2.53.9.06,1.79.23,2.93.37Z"></path>
      <path class="cls-1" d="m229.3,450.51c.61,2.99-.46,5.49-2.05,7.87-.88-.55-1.7-1.06-2.57-1.59-.04-2.66,2.19-5.82,4.62-6.28Z"></path>
      <path class="cls-1" d="m307.8,446.25c-1.13-.4-2.15-.76-3.18-1.13.18-2.9,2.26-5.8,4.44-6.17.7,1.66.11,5.1-1.26,7.3Z"></path>
      <path class="cls-1" d="m348.97,318.93c1.57,2.28,1.72,4.72,1.36,7.31-1.13-.06-2.17-.11-3.2-.16-.88-2.56-.08-5.84,1.84-7.15Z"></path>
      <path class="cls-1" d="m341.2,244.99c-.61.86-1.21,1.71-1.81,2.56-2.6-.91-4.61-3.36-4.41-5.39,1.96-.51,5.02.9,6.22,2.83Z"></path>
      <path class="cls-1" d="m337.22,239.49c-1.74,0-3.06-.13-4.35.03-1.75.23-3.3-.83-3.6-2.8,2.79-.7,5.13.34,7.35,1.79.25.16.34.55.6.98Z"></path>
      <path class="cls-1" d="m232.75,445.02c1.37,2.95,1.04,5.82.21,8.69-.93.1-1.05-.26-1.11-1.01-.13-1.58-.36-3.17-.75-4.7-.42-1.62-.2-2.24,1.65-2.98Z"></path>
      <path class="cls-1" d="m350.08,312.55c1.64,1.53,2.3,3.45,2.83,5.42.16.6.21,1.24.25,1.87.01.2-.19.41-.29.62-.2-.13-.47-.21-.59-.38-.94-1.42-1.85-2.85-2.79-4.28-.43-.66-.23-2.15.58-3.25Z"></path>
      <path class="cls-1" d="m313.09,440.76c-.72.19-1.01.04-1.14-.67-.23-1.26-.62-2.5-.97-3.75-.25-.86.47-2.17,1.75-2.96,1.24,2.41,1.04,4.85.36,7.37Z"></path>
      <path class="cls-1" d="m237.17,445.53c-.19,1.05-.35,2-.55,2.93-.04.2-.28.36-.42.54-.15-.18-.39-.33-.45-.54-.47-1.7-1.02-3.39-1.3-5.12-.07-.46.58-1.2,1.09-1.53.69-.45.9.31,1.02.76.27.99.42,2.01.61,2.96Z"></path>
      <path class="cls-1" d="m353.9,314.75c-.19-.27-.35-.49-.49-.71-.65-1-1.24-2.03-1.95-2.98-.79-1.07-.87-1.93-.09-3.1,1.69.83,3.44,5.31,2.53,6.8Z"></path>
      <path class="cls-1" d="m324.28,233.77c1.35-1.43,4.94-1.07,6.08-.48.13.07.28.28.26.4-.02.12-.23.27-.38.31-1.2.31-2.39.66-3.6.86-.94.15-1.74-.24-2.36-1.09Z"></path>
      <path class="cls-1" d="m315.14,427.93c1.1,1.79,1.22,3.56,1.04,5.38-.01.14-.25.38-.32.36-.17-.05-.37-.19-.46-.35-.5-.95-1.08-1.88-1.43-2.88-.35-.99.29-1.72,1.17-2.51Z"></path>
      <path class="cls-1" d="m279.89,218.83h3.31c-.82,1.15-1.5,2.11-2.38,3.34-.37-1.33-.64-2.3-.93-3.34Z"></path>
      <path class="cls-1" d="m276.66,228.89c.65-.88,1.18-1.58,1.89-2.53.27,1,.49,1.78.76,2.75-.97-.08-1.7-.14-2.65-.21Z"></path>
      <path class="cls-1" d="m434.24,349.67c-17.5-17.22-34.99-34.43-52.47-51.63h52.47v51.63Z"></path>
      <path d="m226.33,256.67c-.06.33-.09.67-.19.99-1.42,4.65-.74,8.94,2.12,12.93,1.68,2.34,3.21,4.79,3.86,7.64.21.9.34,1.81.54,2.85,4.26-1.17,5.6-4.73,7-8.25,1.05,1.01.49,4.92-.98,7.49-2.07,3.62-6.68,5.89-10.28,4.95,1.69-4.53.03-8.49-2.2-12.38-1.43-2.5-2.7-5.07-2.85-8.03-.12-2.43.34-4.74,1.47-6.9.29-.55.76-1,1.15-1.5.12.06.24.13.36.19Z"></path>
      <path d="m267.42,297.54c2.47,2.68,5.36,4.36,9.22,4.43-.1-1-.33-1.89-.24-2.74.25-2.58.5-5.18.96-7.73.75-4.15.31-8.06-1.93-11.71-.15-.24-.22-.52-.14-1.01.38.22.81.38,1.14.65,2.32,1.93,3.59,4.45,3.75,7.37.15,2.74-.1,5.49-.07,8.24.02,2.11.08,4.23.36,6.32.14,1.05.81,2.04,1.29,3.17-3.54,1.33-6.97.95-10.21-.99-2.26-1.35-3.95-3.16-4.12-5.99Z"></path>
      <path d="m211.95,236.09c-.06.99-.12,1.98-.18,2.97-.11,1.88.46,3.56,1.28,5.24.87,1.79,1.55,3.66,2.43,5.77,3.05.2,5.19-1.8,7.07-4.25.57,1.03-.22,3.05-1.78,4.69-2.52,2.65-6.26,3.71-8.99,2.48.95-2.55.03-4.93-.81-7.32-.82-2.34-1.45-4.72-.69-7.19.28-.9.81-1.73,1.23-2.59.15.07.3.13.44.2Z"></path>
      <path d="m234.29,199.74c.51-.21,1.01-.56,1.53-.6,2.49-.23,4.8.35,6.83,1.82,1.65,1.2,2.27,2.92,1.65,4.46-.15.36-.39.75-.7.97-.48.35-1.02.28-1.07-.41-.26-3.69-2.99-4.75-6-5.5-.71-.18-1.45-.26-2.17-.39-.02-.12-.05-.23-.07-.35Z"></path>
    </g>
  </g>
  <g id="Text">
    <g>
      <path class="cls-2" d="m462.78,306.49h20.7c3.45,0,6.1.85,7.95,2.56s2.77,3.83,2.77,6.35c0,2.12-.66,3.93-1.98,5.44-.88,1.01-2.17,1.81-3.86,2.39,2.57.62,4.46,1.68,5.68,3.19s1.82,3.4,1.82,5.68c0,1.86-.43,3.52-1.29,5-.86,1.48-2.04,2.65-3.54,3.52-.93.54-2.33.93-4.2,1.17-2.49.33-4.14.49-4.96.49h-19.09v-35.79Zm11.16,14.04h4.81c1.72,0,2.92-.3,3.6-.89s1.01-1.45,1.01-2.58c0-1.04-.34-1.86-1.01-2.44s-1.85-.88-3.53-.88h-4.88v6.79Zm0,14.06h5.64c1.9,0,3.25-.34,4.03-1.01.78-.67,1.17-1.58,1.17-2.72,0-1.06-.39-1.91-1.16-2.55-.77-.64-2.13-.96-4.06-.96h-5.62v7.25Z"></path>
      <path class="cls-2" d="m501.52,306.49h20.7c3.45,0,6.1.85,7.95,2.56,1.85,1.71,2.77,3.83,2.77,6.35,0,2.12-.66,3.93-1.98,5.44-.88,1.01-2.17,1.81-3.86,2.39,2.57.62,4.46,1.68,5.68,3.19,1.21,1.51,1.82,3.4,1.82,5.68,0,1.86-.43,3.52-1.29,5s-2.04,2.65-3.54,3.52c-.93.54-2.33.93-4.2,1.17-2.49.33-4.14.49-4.96.49h-19.09v-35.79Zm11.16,14.04h4.81c1.73,0,2.93-.3,3.6-.89.67-.59,1.01-1.45,1.01-2.58,0-1.04-.34-1.86-1.01-2.44-.68-.59-1.85-.88-3.53-.88h-4.88v6.79Zm0,14.06h5.64c1.9,0,3.25-.34,4.03-1.01.78-.67,1.17-1.58,1.17-2.72,0-1.06-.39-1.91-1.16-2.55-.77-.64-2.13-.96-4.07-.96h-5.62v7.25Z"></path>
      <path class="cls-2" d="m536.55,306.49h10.5l3.78,20.04,5.54-20.04h10.47l5.55,20.01,3.79-20.01h10.45l-7.89,35.79h-10.85l-6.28-22.53-6.25,22.53h-10.84l-7.96-35.79Z"></path>
      <path class="cls-2" d="m606.64,306.49h20.7c3.45,0,6.1.85,7.95,2.56,1.85,1.71,2.77,3.83,2.77,6.35,0,2.12-.66,3.93-1.98,5.44-.88,1.01-2.17,1.81-3.86,2.39,2.57.62,4.46,1.68,5.68,3.19,1.21,1.51,1.82,3.4,1.82,5.68,0,1.86-.43,3.52-1.29,5-.86,1.48-2.04,2.65-3.54,3.52-.93.54-2.33.93-4.2,1.17-2.49.33-4.14.49-4.96.49h-19.09v-35.79Zm11.16,14.04h4.81c1.72,0,2.93-.3,3.6-.89.68-.59,1.01-1.45,1.01-2.58,0-1.04-.34-1.86-1.01-2.44-.67-.59-1.85-.88-3.53-.88h-4.88v6.79Zm0,14.06h5.64c1.9,0,3.25-.34,4.03-1.01.78-.67,1.17-1.58,1.17-2.72,0-1.06-.39-1.91-1.16-2.55-.77-.64-2.13-.96-4.06-.96h-5.62v7.25Z"></path>
      <path class="cls-2" d="m673.48,331.78h-19.92c.18,1.59.61,2.78,1.29,3.56.96,1.12,2.21,1.68,3.76,1.68.98,0,1.9-.24,2.78-.73.54-.31,1.11-.85,1.73-1.64l9.79.9c-1.5,2.6-3.3,4.47-5.42,5.6-2.12,1.13-5.15,1.7-9.11,1.7-3.43,0-6.14-.48-8.11-1.45-1.97-.97-3.6-2.51-4.89-4.62-1.29-2.11-1.94-4.58-1.94-7.43,0-4.05,1.3-7.33,3.89-9.84,2.6-2.51,6.18-3.76,10.75-3.76,3.71,0,6.64.56,8.79,1.68s3.78,2.75,4.91,4.88c1.12,2.13,1.68,4.91,1.68,8.33v1.12Zm-10.11-4.76c-.2-1.92-.71-3.3-1.55-4.13-.84-.83-1.94-1.25-3.31-1.25-1.58,0-2.84.63-3.78,1.88-.6.78-.99,1.95-1.15,3.49h9.79Z"></path>
      <path class="cls-2" d="m677.99,316.35h9.3v4.25c.89-1.84,1.82-3.1,2.77-3.8.95-.69,2.13-1.04,3.53-1.04s3.07.46,4.81,1.37l-3.08,7.08c-1.17-.49-2.1-.73-2.78-.73-1.3,0-2.31.54-3.03,1.61-1.03,1.51-1.54,4.35-1.54,8.5v8.69h-9.99v-25.93Z"></path>
      <path class="cls-2" d="m728.92,342.28h-9.28v-4.2c-1.38,1.73-2.78,2.95-4.19,3.69-1.41.73-3.14,1.1-5.19,1.1-2.73,0-4.88-.82-6.43-2.45-1.55-1.63-2.33-4.15-2.33-7.56v-16.5h9.99v14.26c0,1.63.3,2.78.9,3.47.6.68,1.45,1.03,2.54,1.03,1.19,0,2.16-.46,2.92-1.37.76-.91,1.14-2.55,1.14-4.91v-12.48h9.94v25.93Z"></path>
      <path class="cls-2" d="m745.86,316.35h4.74v7.28h-4.74v18.65h-9.96v-18.65h-3.71v-7.28h3.71v-1.17c0-1.06.11-2.22.34-3.49.23-1.27.66-2.31,1.28-3.11.63-.8,1.51-1.46,2.64-1.95,1.13-.5,2.79-.74,4.97-.74,1.74,0,4.27.2,7.59.61l-1.1,6.01c-1.19-.2-2.15-.29-2.88-.29-.9,0-1.54.15-1.93.45s-.67.78-.83,1.43c-.08.36-.12,1.12-.12,2.27Z"></path>
      <path class="cls-2" d="m752.35,335.08l9.86-.93c.41,1.17.98,2.01,1.71,2.51s1.71.76,2.93.76c1.33,0,2.37-.28,3.1-.85.57-.42.85-.95.85-1.58,0-.71-.38-1.27-1.12-1.66-.54-.28-1.96-.62-4.27-1.02-3.45-.6-5.85-1.16-7.19-1.67-1.34-.51-2.47-1.38-3.39-2.6-.92-1.22-1.38-2.61-1.38-4.17,0-1.71.5-3.18,1.49-4.42.99-1.24,2.36-2.16,4.1-2.77,1.74-.61,4.08-.92,7.01-.92,3.09,0,5.38.24,6.85.71,1.47.47,2.7,1.21,3.69,2.2.98.99,1.8,2.34,2.45,4.03l-9.42.93c-.24-.83-.65-1.44-1.22-1.83-.78-.52-1.73-.78-2.83-.78s-1.94.2-2.45.6c-.51.4-.77.88-.77,1.45,0,.63.33,1.11.98,1.44.65.32,2.07.62,4.25.88,3.3.37,5.76.89,7.37,1.56s2.84,1.62,3.7,2.85c.85,1.24,1.28,2.59,1.28,4.07s-.45,2.95-1.36,4.37c-.9,1.41-2.33,2.54-4.27,3.38-1.95.84-4.59,1.26-7.95,1.26-4.74,0-8.11-.67-10.12-2.03-2.01-1.35-3.3-3.27-3.87-5.76Z"></path>
      <path class="cls-2" d="m784.55,306.49h10.03v12.4c.99-1.04,2.12-1.82,3.38-2.34,1.26-.52,2.66-.78,4.19-.78,3.16,0,5.77,1.14,7.84,3.41,2.07,2.27,3.1,5.53,3.1,9.78,0,2.83-.47,5.33-1.42,7.48-.94,2.16-2.25,3.77-3.92,4.83-1.67,1.07-3.52,1.6-5.55,1.6-1.74,0-3.34-.37-4.79-1.12-1.09-.59-2.28-1.68-3.56-3.3v3.83h-9.3v-35.79Zm9.96,22.75c0,2.23.42,3.84,1.26,4.85.84,1,1.9,1.5,3.19,1.5,1.19,0,2.18-.49,2.99-1.48.8-.98,1.21-2.64,1.21-4.97,0-2.05-.39-3.56-1.18-4.52-.79-.96-1.75-1.44-2.87-1.44-1.35,0-2.45.5-3.31,1.5-.86,1-1.28,2.52-1.28,4.55Z"></path>
      <path class="cls-2" d="m818.06,306.49h9.94v6.76h-9.94v-6.76Zm0,9.86h9.94v25.93h-9.94v-25.93Z"></path>
      <path class="cls-2" d="m834.54,306.49h9.96v35.79h-9.96v-35.79Z"></path>
      <path class="cls-2" d="m877.99,306.49v35.79h-9.3v-3.83c-1.3,1.63-2.49,2.73-3.56,3.3-1.43.75-3.03,1.12-4.79,1.12-3.53,0-6.23-1.34-8.09-4.03-1.86-2.69-2.79-5.95-2.79-9.79,0-4.3,1.03-7.58,3.09-9.86,2.06-2.28,4.68-3.42,7.85-3.42,1.55,0,2.95.26,4.21.78,1.26.52,2.38,1.3,3.36,2.34v-12.4h10.03Zm-9.96,22.75c0-2.03-.43-3.55-1.29-4.55-.86-1-1.95-1.5-3.27-1.5-1.16,0-2.12.48-2.91,1.44-.78.96-1.17,2.57-1.17,4.83,0,2.12.4,3.67,1.21,4.65.81.99,1.8,1.48,2.99,1.48,1.27,0,2.33-.5,3.17-1.49.85-.99,1.27-2.61,1.27-4.86Z"></path>
      <path class="cls-2" d="m911.22,342.28h-9.28v-4.2c-1.38,1.73-2.78,2.95-4.19,3.69-1.41.73-3.14,1.1-5.19,1.1-2.73,0-4.88-.82-6.43-2.45-1.55-1.63-2.33-4.15-2.33-7.56v-16.5h9.99v14.26c0,1.63.3,2.78.9,3.47.6.68,1.45,1.03,2.54,1.03,1.19,0,2.16-.46,2.92-1.37.76-.91,1.14-2.55,1.14-4.91v-12.48h9.94v25.93Z"></path>
      <path class="cls-2" d="m917.1,316.35h9.25v4.22c1.38-1.72,2.78-2.96,4.2-3.7,1.42-.74,3.14-1.11,5.18-1.11,2.75,0,4.9.82,6.46,2.45,1.55,1.63,2.33,4.16,2.33,7.58v16.48h-9.99v-14.26c0-1.63-.3-2.78-.9-3.45-.6-.68-1.45-1.01-2.54-1.01-1.21,0-2.18.46-2.93,1.37-.75.91-1.12,2.55-1.12,4.91v12.45h-9.94v-25.93Z"></path>
      <path class="cls-2" d="m968.34,316.35h9.3v24.49l.02,1.15c0,1.63-.35,3.18-1.04,4.65-.69,1.47-1.61,2.66-2.76,3.58-1.15.91-2.6,1.57-4.37,1.98-1.77.41-3.79.61-6.07.61-5.21,0-8.79-.78-10.73-2.34-1.95-1.56-2.92-3.65-2.92-6.27,0-.33.02-.76.05-1.32l9.64,1.1c.24.89.62,1.51,1.12,1.86.73.5,1.65.76,2.76.76,1.43,0,2.5-.38,3.21-1.15.71-.77,1.06-2.1,1.06-4v-3.93c-.98,1.16-1.95,1.99-2.93,2.51-1.53.81-3.18,1.22-4.96,1.22-3.47,0-6.27-1.51-8.4-4.54-1.51-2.15-2.27-4.99-2.27-8.52,0-4.04.98-7.11,2.93-9.23s4.51-3.17,7.67-3.17c2.02,0,3.68.34,4.99,1.03,1.31.68,2.53,1.82,3.67,3.39v-3.83Zm-9.35,12.57c0,1.87.4,3.26,1.2,4.16.8.9,1.85,1.36,3.15,1.36s2.27-.47,3.11-1.4c.84-.94,1.26-2.35,1.26-4.24s-.44-3.33-1.32-4.33c-.88-1-1.95-1.5-3.22-1.5s-2.28.46-3.04,1.38c-.76.92-1.14,2.45-1.14,4.58Z"></path>
      <path class="cls-2" d="m981.74,335.08l9.86-.93c.41,1.17.98,2.01,1.71,2.51s1.71.76,2.93.76c1.33,0,2.37-.28,3.1-.85.57-.42.85-.95.85-1.58,0-.71-.38-1.27-1.12-1.66-.54-.28-1.96-.62-4.27-1.02-3.45-.6-5.85-1.16-7.19-1.67-1.34-.51-2.47-1.38-3.39-2.6-.92-1.22-1.38-2.61-1.38-4.17,0-1.71.5-3.18,1.49-4.42.99-1.24,2.36-2.16,4.1-2.77,1.74-.61,4.08-.92,7.01-.92,3.09,0,5.38.24,6.85.71,1.47.47,2.7,1.21,3.69,2.2.98.99,1.8,2.34,2.45,4.03l-9.42.93c-.24-.83-.65-1.44-1.22-1.83-.78-.52-1.73-.78-2.83-.78s-1.94.2-2.45.6c-.51.4-.77.88-.77,1.45,0,.63.33,1.11.98,1.44.65.32,2.07.62,4.25.88,3.3.37,5.76.89,7.37,1.56s2.84,1.62,3.7,2.85c.85,1.24,1.28,2.59,1.28,4.07s-.45,2.95-1.36,4.37c-.9,1.41-2.33,2.54-4.27,3.38-1.95.84-4.59,1.26-7.95,1.26-4.74,0-8.11-.67-10.12-2.03-2.01-1.35-3.3-3.27-3.87-5.76Z"></path>
      <path class="cls-2" d="m1012.13,335.08l9.86-.93c.41,1.17.98,2.01,1.71,2.51s1.71.76,2.93.76c1.33,0,2.37-.28,3.1-.85.57-.42.85-.95.85-1.58,0-.71-.38-1.27-1.12-1.66-.54-.28-1.96-.62-4.27-1.02-3.45-.6-5.85-1.16-7.19-1.67-1.34-.51-2.47-1.38-3.39-2.6-.92-1.22-1.38-2.61-1.38-4.17,0-1.71.5-3.18,1.49-4.42.99-1.24,2.36-2.16,4.1-2.77,1.74-.61,4.08-.92,7.01-.92,3.09,0,5.38.24,6.85.71,1.47.47,2.7,1.21,3.69,2.2.98.99,1.8,2.34,2.45,4.03l-9.42.93c-.24-.83-.65-1.44-1.22-1.83-.78-.52-1.73-.78-2.83-.78s-1.94.2-2.45.6c-.51.4-.77.88-.77,1.45,0,.63.33,1.11.98,1.44.65.32,2.07.62,4.25.88,3.3.37,5.76.89,7.37,1.56s2.84,1.62,3.7,2.85c.85,1.24,1.28,2.59,1.28,4.07s-.45,2.95-1.36,4.37c-.9,1.41-2.33,2.54-4.27,3.38-1.95.84-4.59,1.26-7.95,1.26-4.74,0-8.11-.67-10.12-2.03-2.01-1.35-3.3-3.27-3.87-5.76Z"></path>
      <path class="cls-2" d="m1063.62,332.12l9.45,1.07c-.52,1.97-1.38,3.67-2.56,5.11-1.19,1.44-2.71,2.56-4.55,3.36-1.85.8-4.2,1.2-7.04,1.2s-5.04-.26-6.87-.77c-1.83-.51-3.41-1.34-4.72-2.49-1.32-1.15-2.35-2.49-3.1-4.04-.75-1.54-1.12-3.59-1.12-6.15s.46-4.89,1.37-6.66c.67-1.3,1.58-2.47,2.73-3.5,1.16-1.03,2.34-1.8,3.56-2.31,1.94-.8,4.42-1.2,7.45-1.2,4.23,0,7.46.76,9.68,2.27,2.22,1.51,3.78,3.73,4.67,6.64l-9.35,1.25c-.29-1.11-.83-1.94-1.6-2.5-.77-.56-1.81-.84-3.11-.84-1.64,0-2.97.59-3.99,1.77-1.02,1.18-1.53,2.96-1.53,5.35,0,2.13.5,3.75,1.51,4.85,1.01,1.1,2.29,1.66,3.86,1.66,1.3,0,2.4-.33,3.28-1,.89-.67,1.55-1.69,1.99-3.08Z"></path>
      <path class="cls-2" d="m1076.63,306.49h9.94v13.18c1.35-1.4,2.69-2.4,4.03-3,1.33-.6,2.91-.9,4.74-.9,2.7,0,4.83.82,6.38,2.47,1.55,1.64,2.33,4.17,2.33,7.57v16.48h-9.99v-14.26c0-1.63-.3-2.78-.9-3.45-.6-.68-1.45-1.01-2.54-1.01-1.21,0-2.18.46-2.93,1.37-.75.91-1.12,2.55-1.12,4.91v12.45h-9.94v-35.79Z"></path>
      <path class="cls-2" d="m1137.14,342.28h-9.28v-4.2c-1.38,1.73-2.78,2.95-4.19,3.69-1.41.73-3.14,1.1-5.19,1.1-2.73,0-4.88-.82-6.43-2.45-1.55-1.63-2.33-4.15-2.33-7.56v-16.5h9.99v14.26c0,1.63.3,2.78.9,3.47.6.68,1.45,1.03,2.54,1.03,1.19,0,2.16-.46,2.92-1.37.76-.91,1.14-2.55,1.14-4.91v-12.48h9.94v25.93Z"></path>
      <path class="cls-2" d="m1143.37,306.49h9.96v35.79h-9.96v-35.79Z"></path>
      <path class="cls-2" d="m1188.31,331.78h-19.92c.18,1.59.61,2.78,1.29,3.56.96,1.12,2.21,1.68,3.76,1.68.98,0,1.9-.24,2.78-.73.54-.31,1.11-.85,1.73-1.64l9.79.9c-1.5,2.6-3.3,4.47-5.42,5.6-2.12,1.13-5.15,1.7-9.11,1.7-3.43,0-6.14-.48-8.11-1.45-1.97-.97-3.6-2.51-4.89-4.62-1.29-2.11-1.94-4.58-1.94-7.43,0-4.05,1.3-7.33,3.89-9.84,2.6-2.51,6.18-3.76,10.75-3.76,3.71,0,6.64.56,8.79,1.68s3.78,2.75,4.91,4.88c1.12,2.13,1.68,4.91,1.68,8.33v1.12Zm-10.11-4.76c-.2-1.92-.71-3.3-1.55-4.13-.84-.83-1.94-1.25-3.31-1.25-1.58,0-2.84.63-3.78,1.88-.6.78-.99,1.95-1.15,3.49h9.79Z"></path>
      <path class="cls-2" d="m1206.22,306.49h10.5l3.78,20.04,5.54-20.04h10.47l5.55,20.01,3.79-20.01h10.45l-7.89,35.79h-10.84l-6.28-22.53-6.25,22.53h-10.84l-7.96-35.79Z"></path>
      <path class="cls-2" d="m1261.13,306.49h9.94v6.76h-9.94v-6.76Zm0,9.86h9.94v25.93h-9.94v-25.93Z"></path>
      <path class="cls-2" d="m1277.26,316.35h9.25v4.22c1.38-1.72,2.78-2.96,4.2-3.7,1.42-.74,3.14-1.11,5.18-1.11,2.75,0,4.9.82,6.46,2.45,1.55,1.63,2.33,4.16,2.33,7.58v16.48h-9.99v-14.26c0-1.63-.3-2.78-.9-3.45-.6-.68-1.45-1.01-2.54-1.01-1.21,0-2.18.46-2.93,1.37-.75.91-1.12,2.55-1.12,4.91v12.45h-9.94v-25.93Z"></path>
      <path class="cls-2" d="m1322.45,306.49v9.86h5.47v7.28h-5.47v9.19c0,1.1.11,1.84.32,2.19.33.55.89.83,1.71.83.73,0,1.76-.21,3.08-.63l.73,6.86c-2.46.54-4.75.81-6.88.81-2.47,0-4.3-.32-5.47-.95s-2.04-1.6-2.6-2.89c-.56-1.29-.84-3.38-.84-6.28v-9.12h-3.66v-7.28h3.66v-4.76l9.96-5.1Z"></path>
      <path class="cls-2" d="m1361.29,331.78h-19.92c.18,1.59.61,2.78,1.29,3.56.96,1.12,2.21,1.68,3.76,1.68.98,0,1.9-.24,2.78-.73.54-.31,1.11-.85,1.73-1.64l9.79.9c-1.5,2.6-3.3,4.47-5.42,5.6-2.12,1.13-5.15,1.7-9.11,1.7-3.43,0-6.14-.48-8.11-1.45-1.97-.97-3.6-2.51-4.89-4.62-1.29-2.11-1.94-4.58-1.94-7.43,0-4.05,1.3-7.33,3.89-9.84,2.6-2.51,6.18-3.76,10.75-3.76,3.71,0,6.64.56,8.79,1.68s3.78,2.75,4.91,4.88c1.12,2.13,1.68,4.91,1.68,8.33v1.12Zm-10.11-4.76c-.2-1.92-.71-3.3-1.55-4.13-.84-.83-1.94-1.25-3.31-1.25-1.58,0-2.84.63-3.78,1.88-.6.78-.99,1.95-1.15,3.49h9.79Z"></path>
      <path class="cls-2" d="m1365.8,316.35h9.3v4.25c.89-1.84,1.82-3.1,2.77-3.8.95-.69,2.13-1.04,3.53-1.04s3.07.46,4.81,1.37l-3.08,7.08c-1.17-.49-2.1-.73-2.78-.73-1.3,0-2.31.54-3.03,1.61-1.03,1.51-1.54,4.35-1.54,8.5v8.69h-9.99v-25.93Z"></path>
      <path class="cls-2" d="m1402.22,306.49v9.86h5.47v7.28h-5.47v9.19c0,1.1.11,1.84.32,2.19.33.55.89.83,1.71.83.73,0,1.76-.21,3.08-.63l.73,6.86c-2.46.54-4.75.81-6.88.81-2.47,0-4.3-.32-5.47-.95s-2.04-1.6-2.6-2.89c-.56-1.29-.84-3.38-.84-6.28v-9.12h-3.66v-7.28h3.66v-4.76l9.96-5.1Z"></path>
      <path class="cls-2" d="m1412.28,306.49h9.94v13.18c1.35-1.4,2.69-2.4,4.03-3,1.33-.6,2.91-.9,4.74-.9,2.7,0,4.83.82,6.38,2.47,1.55,1.64,2.33,4.17,2.33,7.57v16.48h-9.99v-14.26c0-1.63-.3-2.78-.9-3.45-.6-.68-1.45-1.01-2.54-1.01-1.21,0-2.18.46-2.93,1.37-.75.91-1.12,2.55-1.12,4.91v12.45h-9.94v-35.79Z"></path>
      <path class="cls-2" d="m1472.8,342.28h-9.28v-4.2c-1.38,1.73-2.78,2.95-4.19,3.69-1.41.73-3.14,1.1-5.19,1.1-2.73,0-4.88-.82-6.43-2.45-1.55-1.63-2.33-4.15-2.33-7.56v-16.5h9.99v14.26c0,1.63.3,2.78.9,3.47.6.68,1.45,1.03,2.54,1.03,1.19,0,2.16-.46,2.92-1.37.76-.91,1.14-2.55,1.14-4.91v-12.48h9.94v25.93Z"></path>
      <path class="cls-2" d="m1478.77,316.35h9.3v4.25c.89-1.84,1.82-3.1,2.77-3.8.95-.69,2.13-1.04,3.53-1.04s3.07.46,4.81,1.37l-3.08,7.08c-1.17-.49-2.1-.73-2.78-.73-1.3,0-2.31.54-3.03,1.61-1.03,1.51-1.54,4.35-1.54,8.5v8.69h-9.99v-25.93Z"></path>
    </g>
  </g>
</svg>